Datalegreya-Dot
<glyph name="semicolon" format="1">
  <advance width="230"/>
  <unicode hex="003B"/>
  <outline>
    <contour>
      <point x="111" y="372" type="line" smooth="yes"/>
      <point x="123" y="372"/>
      <point x="131" y="364"/>
      <point x="131" y="351" type="curve" smooth="yes"/>
      <point x="131" y="339"/>
      <point x="123" y="331"/>
      <point x="111" y="331" type="curve" smooth="yes"/>
      <point x="99" y="331"/>
      <point x="91" y="339"/>
      <point x="91" y="351" type="curve" smooth="yes"/>
      <point x="91" y="364"/>
      <point x="99" y="372"/>
      <point x="111" y="372" type="curve"/>
    </contour>
    <contour>
      <point x="145" y="30" type="curve" smooth="yes"/>
      <point x="145" y="-2"/>
      <point x="122" y="-42"/>
      <point x="79" y="-82" type="curve" smooth="yes"/>
      <point x="67" y="-68" type="line"/>
      <point x="68" y="-65" type="line"/>
      <point x="103" y="-33"/>
      <point x="124" y="0"/>
      <point x="124" y="29" type="curve" smooth="yes"/>
      <point x="124" y="45"/>
      <point x="113" y="59"/>
      <point x="94" y="70" type="curve" smooth="yes"/>
      <point x="94" y="75" type="line"/>
      <point x="97" y="80"/>
      <point x="101" y="85"/>
      <point x="107" y="88" type="curve" smooth="yes"/>
      <point x="131" y="75"/>
      <point x="145" y="55"/>
    </contour>
  </outline>
</glyph>
<glyph name="M" format="1">
  <advance width="781"/>
  <unicode hex="004D"/>
  <outline>
    <contour>
      <point x="705" y="0" type="line"/>
      <point x="637" y="637" type="line"/>
      <point x="614" y="637" type="line"/>
      <point x="577" y="549" type="line"/>
      <point x="390" y="110" type="line"/>
      <point x="386" y="110" type="line"/>
      <point x="209" y="538" type="line"/>
      <point x="169" y="637" type="line"/>
      <point x="146" y="637" type="line"/>
      <point x="76" y="0" type="line"/>
      <point x="97" y="0" type="line"/>
      <point x="118" y="195" type="line"/>
      <point x="161" y="589" type="line"/>
      <point x="166" y="589" type="line"/>
      <point x="376" y="81" type="line"/>
      <point x="401" y="81" type="line"/>
      <point x="615" y="589" type="line"/>
      <point x="620" y="589" type="line"/>
      <point x="664" y="195" type="line"/>
      <point x="684" y="0" type="line"/>
    </contour>
  </outline>
</glyph>
<glyph name="exclamdown" format="1">
  <advance width="247"/>
  <unicode hex="00A1"/>
  <outline>
    <contour>
      <point x="130" y="419" type="curve" smooth="yes"/>
      <point x="142" y="419"/>
      <point x="150" y="427"/>
      <point x="150" y="439" type="curve" smooth="yes"/>
      <point x="150" y="451"/>
      <point x="142" y="459"/>
      <point x="130" y="459" type="curve" smooth="yes"/>
      <point x="118" y="459"/>
      <point x="110" y="451"/>
      <point x="110" y="439" type="curve" smooth="yes"/>
      <point x="110" y="427"/>
      <point x="118" y="419"/>
    </contour>
    <contour>
      <point x="103" y="-194" type="line"/>
      <point x="106" y="-197" type="line"/>
      <point x="120" y="-197" type="line"/>
      <point x="123" y="-194" type="line"/>
      <point x="131" y="254" type="line"/>
      <point x="127" y="259" type="line"/>
      <point x="111" y="259" type="line"/>
    </contour>
  </outline>
</glyph>
<glyph name="sterling" format="1">
  <advance width="384"/>
  <unicode hex="00A3"/>
  <outline>
    <contour>
      <point x="346" y="16" type="line"/>
      <point x="342" y="21" type="line"/>
      <point x="273" y="20" type="line"/>
      <point x="85" y="20" type="line"/>
      <point x="85" y="22" type="line"/>
      <point x="112" y="45"/>
      <point x="125" y="79"/>
      <point x="125" y="130" type="curve" smooth="yes"/>
      <point x="125" y="308" type="line"/>
      <point x="250" y="308" type="line"/>
      <point x="253" y="324" type="line"/>
      <point x="250" y="328" type="line"/>
      <point x="125" y="328" type="line"/>
      <point x="125" y="447" type="line" smooth="yes"/>
      <point x="125" y="527"/>
      <point x="158" y="571"/>
      <point x="232" y="571" type="curve" smooth="yes"/>
      <point x="260" y="571"/>
      <point x="294" y="565"/>
      <point x="323" y="551" type="curve"/>
      <point x="326" y="553" type="line"/>
      <point x="328" y="572" type="line"/>
      <point x="291" y="585"/>
      <point x="257" y="591"/>
      <point x="229" y="591" type="curve" smooth="yes"/>
      <point x="147" y="591"/>
      <point x="105" y="540"/>
      <point x="105" y="447" type="curve" smooth="yes"/>
      <point x="105" y="328" type="line"/>
      <point x="37" y="328" type="line"/>
      <point x="34" y="312" type="line"/>
      <point x="38" y="308" type="line"/>
      <point x="105" y="308" type="line"/>
      <point x="105" y="130" type="line" smooth="yes"/>
      <point x="105" y="64"/>
      <point x="80" y="24"/>
      <point x="35" y="18" type="curve"/>
      <point x="32" y="4" type="line"/>
      <point x="36" y="0" type="line"/>
      <point x="343" y="0" type="line"/>
    </contour>
  </outline>
</glyph>
<glyph name="acute" format="1">
  <advance width="390"/>
  <unicode hex="00B4"/>
  <outline>
    <contour>
      <point x="266" y="668" type="line"/>
      <point x="261" y="669" type="line"/>
      <point x="207" y="614"/>
      <point x="161" y="571"/>
      <point x="115" y="532" type="curve"/>
      <point x="126" y="519" type="line"/>
      <point x="131" y="518" type="line"/>
      <point x="181" y="562"/>
      <point x="227" y="605"/>
      <point x="275" y="653" type="curve"/>
      <point x="276" y="658" type="line"/>
    </contour>
  </outline>
</glyph>
<glyph name="periodcentered" format="1">
  <advance width="230"/>
  <unicode hex="00B7"/>
  <outline>
    <contour>
      <point x="115" y="258" type="curve" smooth="yes"/>
      <point x="103" y="258"/>
      <point x="95" y="250"/>
      <point x="95" y="238" type="curve" smooth="yes"/>
      <point x="95" y="226"/>
      <point x="103" y="218"/>
      <point x="115" y="218" type="curve" smooth="yes"/>
      <point x="127" y="218"/>
      <point x="135" y="226"/>
      <point x="135" y="238" type="curve" smooth="yes"/>
      <point x="135" y="250"/>
      <point x="127" y="258"/>
    </contour>
  </outline>
</glyph>
<glyph name="onequarter" format="1">
  <advance width="656"/>
  <unicode hex="00BC"/>
  <outline>
    <contour>
      <point x="528" y="656" type="line"/>
      <point x="525" y="664" type="line"/>
      <point x="515" y="669" type="line"/>
      <point x="30" y="-77" type="line"/>
      <point x="34" y="-86" type="line"/>
      <point x="43" y="-90" type="line"/>
    </contour>
    <contour>
      <point x="118" y="616" type="line"/>
      <point x="118" y="268" type="line"/>
      <point x="138" y="268" type="line"/>
      <point x="138" y="638" type="line"/>
      <point x="135" y="642" type="line"/>
      <point x="16" y="607" type="line"/>
      <point x="16" y="591" type="line"/>
      <point x="20" y="589" type="line"/>
    </contour>
    <contour>
      <point x="616" y="134" type="line"/>
      <point x="613" y="137" type="line"/>
      <point x="544" y="137" type="line"/>
      <point x="544" y="369" type="line"/>
      <point x="525" y="369" type="line"/>
      <point x="351" y="136" type="line"/>
      <point x="351" y="121" type="line"/>
      <point x="354" y="118" type="line"/>
      <point x="385" y="119" type="line"/>
      <point x="525" y="119" type="line"/>
      <point x="525" y="0" type="line"/>
      <point x="527" y="-2" type="line"/>
      <point x="543" y="0" type="line"/>
      <point x="545" y="2" type="line"/>
      <point x="544" y="119" type="line"/>
      <point x="563" y="119" type="line"/>
      <point x="613" y="118" type="line"/>
    </contour>
    <contour>
      <point x="525" y="137" type="line"/>
      <point x="373" y="137" type="line"/>
      <point x="522" y="337" type="line"/>
      <point x="525" y="337" type="line"/>
    </contour>
  </outline>
</glyph>
<glyph name="Egrave" format="1">
  <advance width="454"/>
  <unicode hex="00C8"/>
  <outline>
    <contour>
      <point x="266" y="637" type="move" name="mark0"/>
    </contour>
    <contour>
      <point x="267" y="0" type="move" name="mark1"/>
    </contour>
    <contour>
      <point x="352" y="729" type="line"/>
      <point x="359" y="744" type="line"/>
      <point x="305" y="770"/>
      <point x="249" y="799"/>
      <point x="183" y="838" type="curve"/>
      <point x="178" y="836" type="line"/>
      <point x="171" y="824" type="line"/>
      <point x="173" y="819" type="line"/>
      <point x="232" y="785"/>
      <point x="288" y="756"/>
      <point x="347" y="726" type="curve"/>
    </contour>
    <contour>
      <point x="425" y="16" type="line"/>
      <point x="422" y="20" type="line"/>
      <point x="130" y="20" type="line"/>
      <point x="130" y="320" type="line"/>
      <point x="367" y="320" type="line"/>
      <point x="371" y="336" type="line"/>
      <point x="368" y="340" type="line"/>
      <point x="130" y="340" type="line"/>
      <point x="130" y="617" type="line"/>
      <point x="417" y="617" type="line"/>
      <point x="421" y="633" type="line"/>
      <point x="418" y="637" type="line"/>
      <point x="110" y="637" type="line"/>
      <point x="110" y="0" type="line"/>
      <point x="421" y="0" type="line"/>
    </contour>
  </outline>
</glyph>
<glyph name="Edieresis" format="1">
  <advance width="454"/>
  <unicode hex="00CB"/>
  <outline>
    <contour>
      <point x="266" y="637" type="move" name="mark0"/>
    </contour>
    <contour>
      <point x="267" y="0" type="move" name="mark1"/>
    </contour>
    <contour>
      <point x="196" y="760" type="curve" smooth="yes"/>
      <point x="208" y="760"/>
      <point x="216" y="768"/>
      <point x="216" y="780" type="curve" smooth="yes"/>
      <point x="216" y="792"/>
      <point x="208" y="800"/>
      <point x="196" y="800" type="curve" smooth="yes"/>
      <point x="184" y="800"/>
      <point x="176" y="792"/>
      <point x="176" y="780" type="curve" smooth="yes"/>
      <point x="176" y="768"/>
      <point x="184" y="760"/>
    </contour>
    <contour>
      <point x="336" y="760" type="curve" smooth="yes"/>
      <point x="348" y="760"/>
      <point x="356" y="768"/>
      <point x="356" y="780" type="curve" smooth="yes"/>
      <point x="356" y="792"/>
      <point x="348" y="800"/>
      <point x="336" y="800" type="curve" smooth="yes"/>
      <point x="324" y="800"/>
      <point x="316" y="792"/>
      <point x="316" y="780" type="curve" smooth="yes"/>
      <point x="316" y="768"/>
      <point x="324" y="760"/>
    </contour>
    <contour>
      <point x="425" y="16" type="line"/>
      <point x="422" y="20" type="line"/>
      <point x="130" y="20" type="line"/>
      <point x="130" y="320" type="line"/>
      <point x="367" y="320" type="line"/>
      <point x="371" y="336" type="line"/>
      <point x="368" y="340" type="line"/>
      <point x="130" y="340" type="line"/>
      <point x="130" y="617" type="line"/>
      <point x="417" y="617" type="line"/>
      <point x="421" y="633" type="line"/>
      <point x="418" y="637" type="line"/>
      <point x="110" y="637" type="line"/>
      <point x="110" y="0" type="line"/>
      <point x="421" y="0" type="line"/>
    </contour>
  </outline>
</glyph>
<glyph name="Igrave" format="1">
  <advance width="240"/>
  <unicode hex="00CC"/>
  <outline>
    <contour>
      <point x="120" y="637" type="move" name="mark0"/>
    </contour>
    <contour>
      <point x="0" y="0" type="move" name="mark1"/>
    </contour>
    <contour>
      <point x="32" y="836" type="line"/>
      <point x="25" y="824" type="line"/>
      <point x="27" y="819" type="line"/>
      <point x="86" y="785"/>
      <point x="142" y="756"/>
      <point x="201" y="726" type="curve"/>
      <point x="206" y="729" type="line"/>
      <point x="213" y="744" type="line"/>
      <point x="159" y="770"/>
      <point x="103" y="799"/>
      <point x="37" y="838" type="curve"/>
    </contour>
    <contour>
      <point x="130" y="0" type="line"/>
      <point x="130" y="637" type="line"/>
      <point x="110" y="637" type="line"/>
      <point x="110" y="0" type="line"/>
    </contour>
  </outline>
</glyph>
<glyph name="Ugrave" format="1">
  <advance width="612"/>
  <unicode hex="00D9"/>
  <outline>
    <contour>
      <point x="310" y="637" type="move" name="mark0"/>
    </contour>
    <contour>
      <point x="0" y="0" type="move" name="mark1"/>
    </contour>
    <contour>
      <point x="222" y="836" type="line"/>
      <point x="215" y="824" type="line"/>
      <point x="217" y="819" type="line"/>
      <point x="276" y="785"/>
      <point x="332" y="756"/>
      <point x="391" y="726" type="curve"/>
      <point x="396" y="729" type="line"/>
      <point x="403" y="744" type="line"/>
      <point x="349" y="770"/>
      <point x="293" y="799"/>
      <point x="227" y="838" type="curve"/>
    </contour>
    <contour>
      <point x="526" y="637" type="line"/>
      <point x="506" y="637" type="line"/>
      <point x="506" y="229" type="line" smooth="yes"/>
      <point x="506" y="92"/>
      <point x="435" y="16"/>
      <point x="306" y="16" type="curve" smooth="yes"/>
      <point x="176" y="16"/>
      <point x="105" y="92"/>
      <point x="106" y="229" type="curve"/>
      <point x="106" y="637" type="line"/>
      <point x="86" y="637" type="line"/>
      <point x="86" y="229" type="line" smooth="yes"/>
      <point x="86" y="79"/>
      <point x="163" y="-4"/>
      <point x="306" y="-4" type="curve" smooth="yes"/>
      <point x="448" y="-4"/>
      <point x="530" y="82"/>
      <point x="526" y="229" type="curve"/>
    </contour>
  </outline>
</glyph>
<glyph name="Udieresis" format="1">
  <advance width="612"/>
  <unicode hex="00DC"/>
  <outline>
    <contour>
      <point x="310" y="637" type="move" name="mark0"/>
    </contour>
    <contour>
      <point x="0" y="0" type="move" name="mark1"/>
    </contour>
    <contour>
      <point x="240" y="800" type="curve" smooth="yes"/>
      <point x="228" y="800"/>
      <point x="220" y="792"/>
      <point x="220" y="780" type="curve" smooth="yes"/>
      <point x="220" y="768"/>
      <point x="228" y="760"/>
      <point x="240" y="760" type="curve" smooth="yes"/>
      <point x="252" y="760"/>
      <point x="260" y="768"/>
      <point x="260" y="780" type="curve" smooth="yes"/>
      <point x="260" y="792"/>
      <point x="252" y="800"/>
    </contour>
    <contour>
      <point x="380" y="800" type="curve" smooth="yes"/>
      <point x="368" y="800"/>
      <point x="360" y="792"/>
      <point x="360" y="780" type="curve" smooth="yes"/>
      <point x="360" y="768"/>
      <point x="368" y="760"/>
      <point x="380" y="760" type="curve" smooth="yes"/>
      <point x="392" y="760"/>
      <point x="400" y="768"/>
      <point x="400" y="780" type="curve" smooth="yes"/>
      <point x="400" y="792"/>
      <point x="392" y="800"/>
    </contour>
    <contour>
      <point x="526" y="637" type="line"/>
      <point x="506" y="637" type="line"/>
      <point x="506" y="229" type="line" smooth="yes"/>
      <point x="506" y="92"/>
      <point x="435" y="16"/>
      <point x="306" y="16" type="curve" smooth="yes"/>
      <point x="176" y="16"/>
      <point x="105" y="92"/>
      <point x="106" y="229" type="curve"/>
      <point x="106" y="637" type="line"/>
      <point x="86" y="637" type="line"/>
      <point x="86" y="229" type="line" smooth="yes"/>
      <point x="86" y="79"/>
      <point x="163" y="-4"/>
      <point x="306" y="-4" type="curve" smooth="yes"/>
      <point x="448" y="-4"/>
      <point x="530" y="82"/>
      <point x="526" y="229" type="curve"/>
    </contour>
  </outline>
</glyph>
<glyph name="dotlessi" format="1">
  <advance width="237"/>
  <unicode hex="0131"/>
  <outline>
    <contour>
      <point x="120" y="491" type="move" name="mark0"/>
    </contour>
    <contour>
      <point x="0" y="0" type="move" name="mark1"/>
    </contour>
    <contour>
      <point x="128" y="0" type="line"/>
      <point x="128" y="491" type="line"/>
      <point x="108" y="491" type="line"/>
      <point x="108" y="0" type="line"/>
    </contour>
  </outline>
</glyph>
<glyph name="Ydieresis" format="1">
  <advance width="495"/>
  <unicode hex="0178"/>
  <outline>
    <contour>
      <point x="239" y="637" type="move" name="mark0"/>
    </contour>
    <contour>
      <point x="0" y="0" type="move" name="mark1"/>
    </contour>
    <contour>
      <point x="169" y="760" type="curve" smooth="yes"/>
      <point x="181" y="760"/>
      <point x="189" y="768"/>
      <point x="189" y="780" type="curve" smooth="yes"/>
      <point x="189" y="792"/>
      <point x="181" y="800"/>
      <point x="169" y="800" type="curve" smooth="yes"/>
      <point x="157" y="800"/>
      <point x="149" y="792"/>
      <point x="149" y="780" type="curve" smooth="yes"/>
      <point x="149" y="768"/>
      <point x="157" y="760"/>
    </contour>
    <contour>
      <point x="309" y="760" type="curve" smooth="yes"/>
      <point x="321" y="760"/>
      <point x="329" y="768"/>
      <point x="329" y="780" type="curve" smooth="yes"/>
      <point x="329" y="792"/>
      <point x="321" y="800"/>
      <point x="309" y="800" type="curve" smooth="yes"/>
      <point x="297" y="800"/>
      <point x="289" y="792"/>
      <point x="289" y="780" type="curve" smooth="yes"/>
      <point x="289" y="768"/>
      <point x="297" y="760"/>
    </contour>
    <contour>
      <point x="248" y="245" type="line"/>
      <point x="466" y="637" type="line"/>
      <point x="440" y="637" type="line"/>
      <point x="429" y="611" type="line"/>
      <point x="241" y="277" type="line"/>
      <point x="236" y="277" type="line"/>
      <point x="63" y="611" type="line"/>
      <point x="52" y="637" type="line"/>
      <point x="26" y="637" type="line"/>
      <point x="228" y="246" type="line"/>
      <point x="228" y="0" type="line"/>
      <point x="248" y="0" type="line"/>
    </contour>
  </outline>
</glyph>
<glyph name="ring" format="1">
  <advance width="390"/>
  <unicode hex="02DA"/>
  <outline>
    <contour>
      <point x="193" y="668" type="curve" smooth="yes"/>
      <point x="151" y="668"/>
      <point x="123" y="638"/>
      <point x="123" y="599" type="curve" smooth="yes"/>
      <point x="123" y="555"/>
      <point x="158" y="529"/>
      <point x="193" y="529" type="curve" smooth="yes"/>
      <point x="228" y="529"/>
      <point x="264" y="554"/>
      <point x="264" y="598" type="curve" smooth="yes"/>
      <point x="264" y="633"/>
      <point x="239" y="668"/>
    </contour>
    <contour>
      <point x="193" y="648" type="curve" smooth="yes"/>
      <point x="227" y="648"/>
      <point x="244" y="625"/>
      <point x="244" y="598" type="curve" smooth="yes"/>
      <point x="244" y="566"/>
      <point x="220" y="549"/>
      <point x="193" y="549" type="curve" smooth="yes"/>
      <point x="166" y="549"/>
      <point x="143" y="567"/>
      <point x="143" y="599" type="curve" smooth="yes"/>
      <point x="143" y="628"/>
      <point x="162" y="648"/>
    </contour>
  </outline>
</glyph>
<glyph name="quoteright" format="1">
  <advance width="124"/>
  <unicode hex="2019"/>
  <outline>
    <contour>
      <point x="46" y="634" type="curve"/>
      <point x="41" y="627"/>
      <point x="37" y="622"/>
      <point x="36" y="618" type="curve" smooth="yes"/>
      <point x="36" y="614" type="line"/>
      <point x="62" y="608"/>
      <point x="74" y="594"/>
      <point x="74" y="575" type="curve" smooth="yes"/>
      <point x="74" y="552"/>
      <point x="60" y="524"/>
      <point x="30" y="492" type="curve"/>
      <point x="30" y="488" type="line"/>
      <point x="43" y="477" type="line"/>
      <point x="79" y="515"/>
      <point x="96" y="550"/>
      <point x="96" y="579" type="curve" smooth="yes"/>
      <point x="96" y="607"/>
      <point x="80" y="626"/>
    </contour>
  </outline>
</glyph>
<glyph name="ellipsis" format="1">
  <advance width="530"/>
  <unicode hex="2026"/>
  <outline>
    <contour>
      <point x="111" y="38" type="curve" smooth="yes"/>
      <point x="99" y="38"/>
      <point x="91" y="30"/>
      <point x="91" y="18" type="curve" smooth="yes"/>
      <point x="91" y="6"/>
      <point x="99" y="-2"/>
      <point x="111" y="-2" type="curve" smooth="yes"/>
      <point x="123" y="-2"/>
      <point x="131" y="6"/>
      <point x="131" y="18" type="curve" smooth="yes"/>
      <point x="131" y="30"/>
      <point x="123" y="38"/>
    </contour>
    <contour>
      <point x="261" y="38" type="curve" smooth="yes"/>
      <point x="249" y="38"/>
      <point x="241" y="30"/>
      <point x="241" y="18" type="curve" smooth="yes"/>
      <point x="241" y="6"/>
      <point x="249" y="-2"/>
      <point x="261" y="-2" type="curve" smooth="yes"/>
      <point x="273" y="-2"/>
      <point x="281" y="6"/>
      <point x="281" y="18" type="curve" smooth="yes"/>
      <point x="281" y="30"/>
      <point x="273" y="38"/>
    </contour>
    <contour>
      <point x="411" y="38" type="curve" smooth="yes"/>
      <point x="399" y="38"/>
      <point x="391" y="30"/>
      <point x="391" y="18" type="curve" smooth="yes"/>
      <point x="391" y="6"/>
      <point x="399" y="-2"/>
      <point x="411" y="-2" type="curve" smooth="yes"/>
      <point x="423" y="-2"/>
      <point x="431" y="6"/>
      <point x="431" y="18" type="curve" smooth="yes"/>
      <point x="431" y="30"/>
      <point x="423" y="38"/>
    </contour>
  </outline>
</glyph>
<glyph name="perthousand" format="1">
  <advance width="1004"/>
  <unicode hex="2030"/>
  <outline>
    <contour>
      <point x="538" y="537" type="line"/>
      <point x="535" y="545" type="line"/>
      <point x="524" y="551" type="line"/>
      <point x="148" y="-44" type="line"/>
      <point x="147" y="-45" type="line"/>
      <point x="151" y="-55" type="line"/>
      <point x="161" y="-60" type="line"/>
      <point x="538" y="535" type="line"/>
    </contour>
    <contour>
      <point x="175" y="244" type="curve" smooth="yes"/>
      <point x="212" y="244"/>
      <point x="240" y="256"/>
      <point x="260" y="281" type="curve" smooth="yes"/>
      <point x="280" y="305"/>
      <point x="287" y="335"/>
      <point x="287" y="382" type="curve" smooth="yes"/>
      <point x="287" y="428"/>
      <point x="280" y="464"/>
      <point x="260" y="488" type="curve" smooth="yes"/>
      <point x="241" y="512"/>
      <point x="212" y="524"/>
      <point x="176" y="524" type="curve" smooth="yes"/>
      <point x="139" y="524"/>
      <point x="110" y="512"/>
      <point x="90" y="487" type="curve" smooth="yes"/>
      <point x="70" y="463"/>
      <point x="63" y="428"/>
      <point x="63" y="381" type="curve" smooth="yes"/>
      <point x="63" y="286"/>
      <point x="101" y="244"/>
    </contour>
    <contour>
      <point x="175" y="504" type="curve" smooth="yes"/>
      <point x="205" y="504"/>
      <point x="229" y="494"/>
      <point x="245" y="473" type="curve" smooth="yes"/>
      <point x="261" y="453"/>
      <point x="268" y="422"/>
      <point x="268" y="381" type="curve" smooth="yes"/>
      <point x="268" y="300"/>
      <point x="236" y="264"/>
      <point x="176" y="264" type="curve" smooth="yes"/>
      <point x="114" y="264"/>
      <point x="82" y="300"/>
      <point x="82" y="382" type="curve" smooth="yes"/>
      <point x="82" y="463"/>
      <point x="114" y="504"/>
    </contour>
    <contour>
      <point x="520" y="256" type="curve" smooth="yes"/>
      <point x="483" y="256"/>
      <point x="454" y="244"/>
      <point x="434" y="219" type="curve" smooth="yes"/>
      <point x="414" y="195"/>
      <point x="407" y="160"/>
      <point x="407" y="113" type="curve" smooth="yes"/>
      <point x="407" y="18"/>
      <point x="445" y="-24"/>
      <point x="518" y="-24" type="curve" smooth="yes"/>
      <point x="556" y="-24"/>
      <point x="584" y="-12"/>
      <point x="604" y="13" type="curve" smooth="yes"/>
      <point x="624" y="37"/>
      <point x="631" y="67"/>
      <point x="631" y="114" type="curve" smooth="yes"/>
      <point x="631" y="160"/>
      <point x="624" y="196"/>
      <point x="604" y="220" type="curve" smooth="yes"/>
      <point x="585" y="244"/>
      <point x="556" y="256"/>
    </contour>
    <contour>
      <point x="520" y="-4" type="curve" smooth="yes"/>
      <point x="458" y="-4"/>
      <point x="426" y="32"/>
      <point x="426" y="114" type="curve" smooth="yes"/>
      <point x="426" y="195"/>
      <point x="458" y="236"/>
      <point x="518" y="236" type="curve" smooth="yes"/>
      <point x="549" y="236"/>
      <point x="573" y="226"/>
      <point x="589" y="205" type="curve" smooth="yes"/>
      <point x="605" y="185"/>
      <point x="612" y="154"/>
      <point x="612" y="113" type="curve" smooth="yes"/>
      <point x="612" y="32"/>
      <point x="580" y="-4"/>
    </contour>
    <contour>
      <point x="820" y="256" type="curve" smooth="yes"/>
      <point x="783" y="256"/>
      <point x="754" y="244"/>
      <point x="734" y="219" type="curve" smooth="yes"/>
      <point x="714" y="195"/>
      <point x="707" y="160"/>
      <point x="707" y="113" type="curve" smooth="yes"/>
      <point x="707" y="18"/>
      <point x="745" y="-24"/>
      <point x="818" y="-24" type="curve" smooth="yes"/>
      <point x="856" y="-24"/>
      <point x="884" y="-12"/>
      <point x="904" y="13" type="curve" smooth="yes"/>
      <point x="924" y="37"/>
      <point x="931" y="67"/>
      <point x="931" y="114" type="curve" smooth="yes"/>
      <point x="931" y="160"/>
      <point x="924" y="196"/>
      <point x="904" y="220" type="curve" smooth="yes"/>
      <point x="885" y="244"/>
      <point x="856" y="256"/>
    </contour>
    <contour>
      <point x="820" y="-4" type="curve" smooth="yes"/>
      <point x="758" y="-4"/>
      <point x="726" y="32"/>
      <point x="726" y="114" type="curve" smooth="yes"/>
      <point x="726" y="195"/>
      <point x="758" y="236"/>
      <point x="818" y="236" type="curve" smooth="yes"/>
      <point x="849" y="236"/>
      <point x="873" y="226"/>
      <point x="889" y="205" type="curve" smooth="yes"/>
      <point x="905" y="185"/>
      <point x="912" y="154"/>
      <point x="912" y="113" type="curve" smooth="yes"/>
      <point x="912" y="32"/>
      <point x="880" y="-4"/>
    </contour>
  </outline>
</glyph>
<glyph name="minute" format="1">
  <advance width="125"/>
  <unicode hex="2032"/>
  <outline>
    <contour>
      <point x="79" y="631" type="line"/>
      <point x="76" y="635" type="line"/>
      <point x="59" y="633" type="line"/>
      <point x="47" y="489" type="line"/>
      <point x="50" y="485" type="line"/>
      <point x="67" y="487" type="line"/>
    </contour>
  </outline>
</glyph>
<glyph name="ninesuperior" format="1">
  <advance width="323"/>
  <unicode hex="2079"/>
  <outline>
    <contour>
      <point x="167" y="705" type="curve" smooth="yes"/>
      <point x="90" y="705"/>
      <point x="48" y="663"/>
      <point x="48" y="591" type="curve" smooth="yes"/>
      <point x="48" y="526"/>
      <point x="87" y="488"/>
      <point x="152" y="488" type="curve" smooth="yes"/>
      <point x="191" y="488"/>
      <point x="226" y="502"/>
      <point x="255" y="524" type="curve"/>
      <point x="257" y="522" type="line"/>
      <point x="239" y="440"/>
      <point x="176" y="378"/>
      <point x="68" y="342" type="curve"/>
      <point x="68" y="338" type="line"/>
      <point x="78" y="328" type="line"/>
      <point x="81" y="328" type="line"/>
      <point x="209" y="372"/>
      <point x="281" y="459"/>
      <point x="281" y="571" type="curve" smooth="yes"/>
      <point x="281" y="657"/>
      <point x="240" y="705"/>
    </contour>
    <contour>
      <point x="155" y="506" type="curve" smooth="yes"/>
      <point x="100" y="506"/>
      <point x="67" y="536"/>
      <point x="67" y="592" type="curve" smooth="yes"/>
      <point x="67" y="654"/>
      <point x="103" y="688"/>
      <point x="167" y="688" type="curve" smooth="yes"/>
      <point x="229" y="688"/>
      <point x="262" y="646"/>
      <point x="262" y="571" type="curve" smooth="yes"/>
      <point x="262" y="563"/>
      <point x="262" y="555"/>
      <point x="261" y="547" type="curve"/>
      <point x="230" y="522"/>
      <point x="194" y="506"/>
    </contour>
  </outline>
</glyph>
<glyph name="seveneighths" format="1">
  <advance width="639"/>
  <unicode hex="215E"/>
  <outline>
    <contour>
      <point x="523" y="664" type="line"/>
      <point x="513" y="669" type="line"/>
      <point x="28" y="-77" type="line"/>
      <point x="32" y="-86" type="line"/>
      <point x="41" y="-90" type="line"/>
      <point x="526" y="656" type="line"/>
    </contour>
    <contour>
      <point x="76" y="637" type="line"/>
      <point x="30" y="638" type="line"/>
      <point x="28" y="621" type="line"/>
      <point x="31" y="617" type="line"/>
      <point x="71" y="618" type="line"/>
      <point x="235" y="618" type="line"/>
      <point x="70" y="271" type="line"/>
      <point x="71" y="267" type="line"/>
      <point x="89" y="262" type="line"/>
      <point x="114" y="320" type="line"/>
      <point x="257" y="621" type="line"/>
      <point x="256" y="638" type="line"/>
      <point x="232" y="637" type="line"/>
    </contour>
    <contour>
      <point x="483" y="371" type="curve" smooth="yes"/>
      <point x="422" y="371"/>
      <point x="379" y="338"/>
      <point x="379" y="281" type="curve" smooth="yes"/>
      <point x="379" y="232"/>
      <point x="414" y="209"/>
      <point x="453" y="193" type="curve"/>
      <point x="453" y="191" type="line"/>
      <point x="409" y="175"/>
      <point x="361" y="147"/>
      <point x="361" y="91" type="curve" smooth="yes"/>
      <point x="361" y="35"/>
      <point x="404" y="-3"/>
      <point x="473" y="-3" type="curve" smooth="yes"/>
      <point x="544" y="-3"/>
      <point x="591" y="36"/>
      <point x="591" y="96" type="curve" smooth="yes"/>
      <point x="591" y="154"/>
      <point x="544" y="174"/>
      <point x="497" y="192" type="curve"/>
      <point x="497" y="194" type="line"/>
      <point x="540" y="210"/>
      <point x="577" y="235"/>
      <point x="577" y="287" type="curve" smooth="yes"/>
      <point x="577" y="340"/>
      <point x="541" y="371"/>
    </contour>
    <contour>
      <point x="482" y="354" type="curve" smooth="yes"/>
      <point x="529" y="354"/>
      <point x="559" y="328"/>
      <point x="559" y="286" type="curve" smooth="yes"/>
      <point x="559" y="236"/>
      <point x="517" y="214"/>
      <point x="476" y="201" type="curve"/>
      <point x="435" y="217"/>
      <point x="398" y="235"/>
      <point x="398" y="281" type="curve" smooth="yes"/>
      <point x="398" y="326"/>
      <point x="432" y="354"/>
    </contour>
    <contour>
      <point x="473" y="183" type="curve"/>
      <point x="522" y="164"/>
      <point x="572" y="148"/>
      <point x="572" y="94" type="curve" smooth="yes"/>
      <point x="572" y="47"/>
      <point x="534" y="15"/>
      <point x="473" y="15" type="curve" smooth="yes"/>
      <point x="416" y="15"/>
      <point x="380" y="45"/>
      <point x="380" y="91" type="curve" smooth="yes"/>
      <point x="380" y="146"/>
      <point x="430" y="168"/>
    </contour>
  </outline>
</glyph>
<glyph name="arrowdown" format="1">
  <advance width="500"/>
  <unicode hex="2193"/>
  <outline>
    <contour>
      <point x="443" y="190" type="line"/>
      <point x="435" y="204" type="line"/>
      <point x="429" y="204" type="line"/>
      <point x="259" y="37" type="line"/>
      <point x="259" y="452" type="line"/>
      <point x="241" y="454" type="line"/>
      <point x="239" y="452" type="line"/>
      <point x="239" y="37" type="line"/>
      <point x="69" y="204" type="line"/>
      <point x="63" y="204" type="line"/>
      <point x="55" y="190" type="line"/>
      <point x="247" y="0" type="line"/>
      <point x="251" y="0" type="line"/>
    </contour>
  </outline>
</glyph>
<glyph name="divisionslash" format="1">
  <advance width="291"/>
  <unicode hex="2215"/>
  <outline>
    <contour>
      <point x="270" y="670" type="line"/>
      <point x="267" y="675" type="line"/>
      <point x="251" y="675" type="line"/>
      <point x="47" y="-106" type="line"/>
      <point x="50" y="-110" type="line"/>
      <point x="66" y="-110" type="line"/>
    </contour>
  </outline>
</glyph>
<glyph name="notequal" format="1">
  <advance width="480"/>
  <unicode hex="2260"/>
  <outline>
    <contour>
      <point x="438" y="208" type="line"/>
      <point x="224" y="208" type="line"/>
      <point x="254" y="332" type="line"/>
      <point x="439" y="332" type="line"/>
      <point x="441" y="349" type="line"/>
      <point x="438" y="352" type="line"/>
      <point x="259" y="352" type="line"/>
      <point x="293" y="492" type="line"/>
      <point x="290" y="496" type="line"/>
      <point x="273" y="496" type="line"/>
      <point x="238" y="352" type="line"/>
      <point x="41" y="352" type="line"/>
      <point x="39" y="335" type="line"/>
      <point x="42" y="332" type="line"/>
      <point x="233" y="332" type="line"/>
      <point x="204" y="208" type="line"/>
      <point x="41" y="208" type="line"/>
      <point x="39" y="191" type="line"/>
      <point x="42" y="188" type="line"/>
      <point x="199" y="188" type="line"/>
      <point x="162" y="36" type="line"/>
      <point x="165" y="33" type="line"/>
      <point x="182" y="33" type="line"/>
      <point x="219" y="188" type="line"/>
      <point x="439" y="188" type="line"/>
      <point x="441" y="205" type="line"/>
    </contour>
  </outline>
</glyph>
<glyph name="a.1.0" format="1">
  <advance width="494"/>
  <outline>
    <contour>
      <point x="67" y="132" type="line"/>
      <point x="2" y="158" type="line"/>
      <point x="0" y="159"/>
      <point x="-3" y="158"/>
      <point x="-3" y="156" type="curve" smooth="yes"/>
      <point x="-4" y="154"/>
      <point x="-3" y="151"/>
      <point x="-1" y="150" type="curve"/>
      <point x="63" y="125" type="line"/>
    </contour>
    <contour>
      <point x="496" y="-38" type="curve"/>
      <point x="130" y="107" type="line"/>
      <point x="127" y="99" type="line"/>
      <point x="493" y="-46" type="line"/>
      <point x="493" y="-46"/>
      <point x="494" y="-46"/>
      <point x="494" y="-46" type="curve" smooth="yes"/>
      <point x="496" y="-46"/>
      <point x="498" y="-45"/>
      <point x="498" y="-44" type="curve" smooth="yes"/>
      <point x="499" y="-42"/>
      <point x="498" y="-39"/>
    </contour>
    <contour>
      <point x="396" y="-36" type="curve" smooth="yes"/>
      <point x="392" y="-36"/>
      <point x="389" y="-39"/>
      <point x="389" y="-42" type="curve" smooth="yes"/>
      <point x="389" y="-46"/>
      <point x="392" y="-48"/>
      <point x="396" y="-48" type="curve" smooth="yes"/>
      <point x="399" y="-48"/>
      <point x="402" y="-46"/>
      <point x="402" y="-42" type="curve" smooth="yes"/>
      <point x="402" y="-39"/>
      <point x="399" y="-36"/>
    </contour>
    <contour>
      <point x="346" y="-36" type="curve" smooth="yes"/>
      <point x="343" y="-36"/>
      <point x="340" y="-39"/>
      <point x="340" y="-42" type="curve" smooth="yes"/>
      <point x="340" y="-46"/>
      <point x="343" y="-48"/>
      <point x="346" y="-48" type="curve" smooth="yes"/>
      <point x="350" y="-48"/>
      <point x="352" y="-46"/>
      <point x="352" y="-42" type="curve" smooth="yes"/>
      <point x="352" y="-39"/>
      <point x="350" y="-36"/>
    </contour>
    <contour>
      <point x="297" y="-36" type="curve" smooth="yes"/>
      <point x="293" y="-36"/>
      <point x="291" y="-39"/>
      <point x="291" y="-42" type="curve" smooth="yes"/>
      <point x="291" y="-46"/>
      <point x="293" y="-48"/>
      <point x="297" y="-48" type="curve" smooth="yes"/>
      <point x="300" y="-48"/>
      <point x="303" y="-46"/>
      <point x="303" y="-42" type="curve" smooth="yes"/>
      <point x="303" y="-39"/>
      <point x="300" y="-36"/>
    </contour>
    <contour>
      <point x="247" y="-36" type="curve" smooth="yes"/>
      <point x="244" y="-36"/>
      <point x="241" y="-39"/>
      <point x="241" y="-42" type="curve" smooth="yes"/>
      <point x="241" y="-46"/>
      <point x="244" y="-48"/>
      <point x="247" y="-48" type="curve" smooth="yes"/>
      <point x="251" y="-48"/>
      <point x="254" y="-46"/>
      <point x="254" y="-42" type="curve" smooth="yes"/>
      <point x="254" y="-39"/>
      <point x="251" y="-36"/>
    </contour>
    <contour>
      <point x="247" y="13" type="curve" smooth="yes"/>
      <point x="244" y="13"/>
      <point x="241" y="10"/>
      <point x="241" y="7" type="curve" smooth="yes"/>
      <point x="241" y="4"/>
      <point x="244" y="1"/>
      <point x="247" y="1" type="curve" smooth="yes"/>
      <point x="251" y="1"/>
      <point x="254" y="4"/>
      <point x="254" y="7" type="curve" smooth="yes"/>
      <point x="254" y="10"/>
      <point x="251" y="13"/>
    </contour>
    <contour>
      <point x="198" y="-36" type="curve" smooth="yes"/>
      <point x="195" y="-36"/>
      <point x="192" y="-39"/>
      <point x="192" y="-42" type="curve" smooth="yes"/>
      <point x="192" y="-46"/>
      <point x="195" y="-48"/>
      <point x="198" y="-48" type="curve" smooth="yes"/>
      <point x="201" y="-48"/>
      <point x="204" y="-46"/>
      <point x="204" y="-42" type="curve" smooth="yes"/>
      <point x="204" y="-39"/>
      <point x="201" y="-36"/>
    </contour>
    <contour>
      <point x="198" y="13" type="curve" smooth="yes"/>
      <point x="195" y="13"/>
      <point x="192" y="10"/>
      <point x="192" y="7" type="curve" smooth="yes"/>
      <point x="192" y="4"/>
      <point x="195" y="1"/>
      <point x="198" y="1" type="curve" smooth="yes"/>
      <point x="201" y="1"/>
      <point x="204" y="4"/>
      <point x="204" y="7" type="curve" smooth="yes"/>
      <point x="204" y="10"/>
      <point x="201" y="13"/>
    </contour>
    <contour>
      <point x="149" y="-36" type="curve" smooth="yes"/>
      <point x="145" y="-36"/>
      <point x="142" y="-39"/>
      <point x="142" y="-42" type="curve" smooth="yes"/>
      <point x="142" y="-46"/>
      <point x="145" y="-48"/>
      <point x="149" y="-48" type="curve" smooth="yes"/>
      <point x="152" y="-48"/>
      <point x="155" y="-46"/>
      <point x="155" y="-42" type="curve" smooth="yes"/>
      <point x="155" y="-39"/>
      <point x="152" y="-36"/>
    </contour>
    <contour>
      <point x="149" y="13" type="curve" smooth="yes"/>
      <point x="145" y="13"/>
      <point x="142" y="10"/>
      <point x="142" y="7" type="curve" smooth="yes"/>
      <point x="142" y="4"/>
      <point x="145" y="1"/>
      <point x="149" y="1" type="curve" smooth="yes"/>
      <point x="152" y="1"/>
      <point x="155" y="4"/>
      <point x="155" y="7" type="curve" smooth="yes"/>
      <point x="155" y="10"/>
      <point x="152" y="13"/>
    </contour>
    <contour>
      <point x="149" y="62" type="curve" smooth="yes"/>
      <point x="145" y="62"/>
      <point x="142" y="59"/>
      <point x="142" y="56" type="curve" smooth="yes"/>
      <point x="142" y="53"/>
      <point x="145" y="50"/>
      <point x="149" y="50" type="curve" smooth="yes"/>
      <point x="152" y="50"/>
      <point x="155" y="53"/>
      <point x="155" y="56" type="curve" smooth="yes"/>
      <point x="155" y="59"/>
      <point x="152" y="62"/>
    </contour>
    <contour>
      <point x="99" y="-36" type="curve" smooth="yes"/>
      <point x="96" y="-36"/>
      <point x="93" y="-39"/>
      <point x="93" y="-42" type="curve" smooth="yes"/>
      <point x="93" y="-46"/>
      <point x="96" y="-48"/>
      <point x="99" y="-48" type="curve" smooth="yes"/>
      <point x="103" y="-48"/>
      <point x="105" y="-46"/>
      <point x="105" y="-42" type="curve" smooth="yes"/>
      <point x="105" y="-39"/>
      <point x="103" y="-36"/>
    </contour>
    <contour>
      <point x="99" y="13" type="curve" smooth="yes"/>
      <point x="96" y="13"/>
      <point x="93" y="10"/>
      <point x="93" y="7" type="curve" smooth="yes"/>
      <point x="93" y="4"/>
      <point x="96" y="1"/>
      <point x="99" y="1" type="curve" smooth="yes"/>
      <point x="103" y="1"/>
      <point x="105" y="4"/>
      <point x="105" y="7" type="curve" smooth="yes"/>
      <point x="105" y="10"/>
      <point x="103" y="13"/>
    </contour>
    <contour>
      <point x="50" y="-36" type="curve" smooth="yes"/>
      <point x="46" y="-36"/>
      <point x="44" y="-39"/>
      <point x="44" y="-42" type="curve" smooth="yes"/>
      <point x="44" y="-46"/>
      <point x="46" y="-48"/>
      <point x="50" y="-48" type="curve" smooth="yes"/>
      <point x="53" y="-48"/>
      <point x="56" y="-46"/>
      <point x="56" y="-42" type="curve" smooth="yes"/>
      <point x="56" y="-39"/>
      <point x="53" y="-36"/>
    </contour>
    <contour>
      <point x="69" y="36" type="line"/>
      <point x="113" y="142" type="line"/>
      <point x="379" y="142" type="line"/>
      <point x="419" y="36" type="line"/>
      <point x="429" y="0" type="line"/>
      <point x="452" y="0" type="line"/>
      <point x="397" y="149" type="line"/>
      <point x="262" y="506" type="line"/>
      <point x="241" y="506" type="line"/>
      <point x="34" y="0" type="line"/>
      <point x="57" y="0" type="line"/>
    </contour>
    <contour>
      <point x="249" y="475" type="line"/>
      <point x="252" y="475" type="line"/>
      <point x="372" y="161" type="line"/>
      <point x="121" y="161" type="line"/>
    </contour>
  </outline>
</glyph>
<glyph name="a.2.1" format="1">
  <advance width="494"/>
  <outline>
    <contour>
      <point x="241" y="506" type="line"/>
      <point x="155" y="294" type="line"/>
      <point x="2" y="354" type="line"/>
      <point x="0" y="355"/>
      <point x="-3" y="354"/>
      <point x="-3" y="352" type="curve" smooth="yes"/>
      <point x="-4" y="350"/>
      <point x="-3" y="348"/>
      <point x="-1" y="347" type="curve"/>
      <point x="324" y="218" type="line"/>
      <point x="320" y="228" type="line"/>
      <point x="172" y="287" type="line"/>
      <point x="249" y="475" type="line"/>
      <point x="252" y="475" type="line"/>
      <point x="372" y="161" type="line"/>
      <point x="121" y="161" type="line"/>
      <point x="157" y="250" type="line"/>
      <point x="140" y="257" type="line"/>
      <point x="34" y="0" type="line"/>
      <point x="57" y="0" type="line"/>
      <point x="69" y="36" type="line"/>
      <point x="113" y="141" type="line"/>
      <point x="379" y="141" type="line"/>
      <point x="419" y="36" type="line"/>
      <point x="429" y="0" type="line"/>
      <point x="452" y="0" type="line"/>
      <point x="262" y="506" type="line"/>
    </contour>
    <contour>
      <point x="496" y="158" type="curve"/>
      <point x="406" y="194" type="line"/>
      <point x="410" y="183" type="line"/>
      <point x="493" y="150" type="line"/>
      <point x="493" y="150"/>
      <point x="494" y="150"/>
      <point x="494" y="150" type="curve" smooth="yes"/>
      <point x="496" y="150"/>
      <point x="498" y="151"/>
      <point x="498" y="153" type="curve" smooth="yes"/>
      <point x="499" y="155"/>
      <point x="498" y="157"/>
    </contour>
    <contour>
      <point x="494" y="-36" type="curve" smooth="yes"/>
      <point x="491" y="-36"/>
      <point x="488" y="-39"/>
      <point x="488" y="-42" type="curve" smooth="yes"/>
      <point x="488" y="-46"/>
      <point x="491" y="-48"/>
      <point x="494" y="-48" type="curve" smooth="yes"/>
      <point x="498" y="-48"/>
      <point x="501" y="-46"/>
      <point x="501" y="-42" type="curve" smooth="yes"/>
      <point x="501" y="-39"/>
      <point x="498" y="-36"/>
    </contour>
    <contour>
      <point x="494" y="13" type="curve" smooth="yes"/>
      <point x="491" y="13"/>
      <point x="488" y="10"/>
      <point x="488" y="7" type="curve" smooth="yes"/>
      <point x="488" y="4"/>
      <point x="491" y="1"/>
      <point x="494" y="1" type="curve" smooth="yes"/>
      <point x="498" y="1"/>
      <point x="501" y="4"/>
      <point x="501" y="7" type="curve" smooth="yes"/>
      <point x="501" y="10"/>
      <point x="498" y="13"/>
    </contour>
    <contour>
      <point x="494" y="62" type="curve" smooth="yes"/>
      <point x="491" y="62"/>
      <point x="488" y="59"/>
      <point x="488" y="56" type="curve" smooth="yes"/>
      <point x="488" y="53"/>
      <point x="491" y="50"/>
      <point x="494" y="50" type="curve" smooth="yes"/>
      <point x="498" y="50"/>
      <point x="501" y="53"/>
      <point x="501" y="56" type="curve" smooth="yes"/>
      <point x="501" y="59"/>
      <point x="498" y="62"/>
    </contour>
    <contour>
      <point x="494" y="111" type="curve" smooth="yes"/>
      <point x="491" y="111"/>
      <point x="488" y="108"/>
      <point x="488" y="105" type="curve" smooth="yes"/>
      <point x="488" y="102"/>
      <point x="491" y="99"/>
      <point x="494" y="99" type="curve" smooth="yes"/>
      <point x="498" y="99"/>
      <point x="501" y="102"/>
      <point x="501" y="105" type="curve" smooth="yes"/>
      <point x="501" y="108"/>
      <point x="498" y="111"/>
    </contour>
    <contour>
      <point x="445" y="-36" type="curve" smooth="yes"/>
      <point x="442" y="-36"/>
      <point x="439" y="-39"/>
      <point x="439" y="-42" type="curve" smooth="yes"/>
      <point x="439" y="-46"/>
      <point x="442" y="-48"/>
      <point x="445" y="-48" type="curve" smooth="yes"/>
      <point x="448" y="-48"/>
      <point x="451" y="-46"/>
      <point x="451" y="-42" type="curve" smooth="yes"/>
      <point x="451" y="-39"/>
      <point x="448" y="-36"/>
    </contour>
    <contour>
      <point x="445" y="111" type="curve" smooth="yes"/>
      <point x="442" y="111"/>
      <point x="439" y="108"/>
      <point x="439" y="105" type="curve" smooth="yes"/>
      <point x="439" y="102"/>
      <point x="442" y="99"/>
      <point x="445" y="99" type="curve" smooth="yes"/>
      <point x="448" y="99"/>
      <point x="451" y="102"/>
      <point x="451" y="105" type="curve" smooth="yes"/>
      <point x="451" y="108"/>
      <point x="448" y="111"/>
    </contour>
    <contour>
      <point x="396" y="-36" type="curve" smooth="yes"/>
      <point x="392" y="-36"/>
      <point x="389" y="-39"/>
      <point x="389" y="-42" type="curve" smooth="yes"/>
      <point x="389" y="-46"/>
      <point x="392" y="-48"/>
      <point x="396" y="-48" type="curve" smooth="yes"/>
      <point x="399" y="-48"/>
      <point x="402" y="-46"/>
      <point x="402" y="-42" type="curve" smooth="yes"/>
      <point x="402" y="-39"/>
      <point x="399" y="-36"/>
    </contour>
    <contour>
      <point x="396" y="13" type="curve" smooth="yes"/>
      <point x="392" y="13"/>
      <point x="389" y="10"/>
      <point x="389" y="7" type="curve" smooth="yes"/>
      <point x="389" y="4"/>
      <point x="392" y="1"/>
      <point x="396" y="1" type="curve" smooth="yes"/>
      <point x="399" y="1"/>
      <point x="402" y="4"/>
      <point x="402" y="7" type="curve" smooth="yes"/>
      <point x="402" y="10"/>
      <point x="399" y="13"/>
    </contour>
    <contour>
      <point x="346" y="-36" type="curve" smooth="yes"/>
      <point x="343" y="-36"/>
      <point x="340" y="-39"/>
      <point x="340" y="-42" type="curve" smooth="yes"/>
      <point x="340" y="-46"/>
      <point x="343" y="-48"/>
      <point x="346" y="-48" type="curve" smooth="yes"/>
      <point x="350" y="-48"/>
      <point x="352" y="-46"/>
      <point x="352" y="-42" type="curve" smooth="yes"/>
      <point x="352" y="-39"/>
      <point x="350" y="-36"/>
    </contour>
    <contour>
      <point x="346" y="13" type="curve" smooth="yes"/>
      <point x="343" y="13"/>
      <point x="340" y="10"/>
      <point x="340" y="7" type="curve" smooth="yes"/>
      <point x="340" y="4"/>
      <point x="343" y="1"/>
      <point x="346" y="1" type="curve" smooth="yes"/>
      <point x="350" y="1"/>
      <point x="352" y="4"/>
      <point x="352" y="7" type="curve" smooth="yes"/>
      <point x="352" y="10"/>
      <point x="350" y="13"/>
    </contour>
    <contour>
      <point x="346" y="62" type="curve" smooth="yes"/>
      <point x="343" y="62"/>
      <point x="340" y="59"/>
      <point x="340" y="56" type="curve" smooth="yes"/>
      <point x="340" y="53"/>
      <point x="343" y="50"/>
      <point x="346" y="50" type="curve" smooth="yes"/>
      <point x="350" y="50"/>
      <point x="352" y="53"/>
      <point x="352" y="56" type="curve" smooth="yes"/>
      <point x="352" y="59"/>
      <point x="350" y="62"/>
    </contour>
    <contour>
      <point x="346" y="111" type="curve" smooth="yes"/>
      <point x="343" y="111"/>
      <point x="340" y="108"/>
      <point x="340" y="105" type="curve" smooth="yes"/>
      <point x="340" y="102"/>
      <point x="343" y="99"/>
      <point x="346" y="99" type="curve" smooth="yes"/>
      <point x="350" y="99"/>
      <point x="352" y="102"/>
      <point x="352" y="105" type="curve" smooth="yes"/>
      <point x="352" y="108"/>
      <point x="350" y="111"/>
    </contour>
    <contour>
      <point x="297" y="-36" type="curve" smooth="yes"/>
      <point x="293" y="-36"/>
      <point x="291" y="-39"/>
      <point x="291" y="-42" type="curve" smooth="yes"/>
      <point x="291" y="-46"/>
      <point x="293" y="-48"/>
      <point x="297" y="-48" type="curve" smooth="yes"/>
      <point x="300" y="-48"/>
      <point x="303" y="-46"/>
      <point x="303" y="-42" type="curve" smooth="yes"/>
      <point x="303" y="-39"/>
      <point x="300" y="-36"/>
    </contour>
    <contour>
      <point x="297" y="13" type="curve" smooth="yes"/>
      <point x="293" y="13"/>
      <point x="291" y="10"/>
      <point x="291" y="7" type="curve" smooth="yes"/>
      <point x="291" y="4"/>
      <point x="293" y="1"/>
      <point x="297" y="1" type="curve" smooth="yes"/>
      <point x="300" y="1"/>
      <point x="303" y="4"/>
      <point x="303" y="7" type="curve" smooth="yes"/>
      <point x="303" y="10"/>
      <point x="300" y="13"/>
    </contour>
    <contour>
      <point x="297" y="62" type="curve" smooth="yes"/>
      <point x="293" y="62"/>
      <point x="291" y="59"/>
      <point x="291" y="56" type="curve" smooth="yes"/>
      <point x="291" y="53"/>
      <point x="293" y="50"/>
      <point x="297" y="50" type="curve" smooth="yes"/>
      <point x="300" y="50"/>
      <point x="303" y="53"/>
      <point x="303" y="56" type="curve" smooth="yes"/>
      <point x="303" y="59"/>
      <point x="300" y="62"/>
    </contour>
    <contour>
      <point x="297" y="111" type="curve" smooth="yes"/>
      <point x="293" y="111"/>
      <point x="291" y="108"/>
      <point x="291" y="105" type="curve" smooth="yes"/>
      <point x="291" y="102"/>
      <point x="293" y="99"/>
      <point x="297" y="99" type="curve" smooth="yes"/>
      <point x="300" y="99"/>
      <point x="303" y="102"/>
      <point x="303" y="105" type="curve" smooth="yes"/>
      <point x="303" y="108"/>
      <point x="300" y="111"/>
    </contour>
    <contour>
      <point x="247" y="-36" type="curve" smooth="yes"/>
      <point x="244" y="-36"/>
      <point x="241" y="-39"/>
      <point x="241" y="-42" type="curve" smooth="yes"/>
      <point x="241" y="-46"/>
      <point x="244" y="-48"/>
      <point x="247" y="-48" type="curve" smooth="yes"/>
      <point x="251" y="-48"/>
      <point x="254" y="-46"/>
      <point x="254" y="-42" type="curve" smooth="yes"/>
      <point x="254" y="-39"/>
      <point x="251" y="-36"/>
    </contour>
    <contour>
      <point x="247" y="13" type="curve" smooth="yes"/>
      <point x="244" y="13"/>
      <point x="241" y="10"/>
      <point x="241" y="7" type="curve" smooth="yes"/>
      <point x="241" y="4"/>
      <point x="244" y="1"/>
      <point x="247" y="1" type="curve" smooth="yes"/>
      <point x="251" y="1"/>
      <point x="254" y="4"/>
      <point x="254" y="7" type="curve" smooth="yes"/>
      <point x="254" y="10"/>
      <point x="251" y="13"/>
    </contour>
    <contour>
      <point x="247" y="62" type="curve" smooth="yes"/>
      <point x="244" y="62"/>
      <point x="241" y="59"/>
      <point x="241" y="56" type="curve" smooth="yes"/>
      <point x="241" y="53"/>
      <point x="244" y="50"/>
      <point x="247" y="50" type="curve" smooth="yes"/>
      <point x="251" y="50"/>
      <point x="254" y="53"/>
      <point x="254" y="56" type="curve" smooth="yes"/>
      <point x="254" y="59"/>
      <point x="251" y="62"/>
    </contour>
    <contour>
      <point x="247" y="111" type="curve" smooth="yes"/>
      <point x="244" y="111"/>
      <point x="241" y="108"/>
      <point x="241" y="105" type="curve" smooth="yes"/>
      <point x="241" y="102"/>
      <point x="244" y="99"/>
      <point x="247" y="99" type="curve" smooth="yes"/>
      <point x="251" y="99"/>
      <point x="254" y="102"/>
      <point x="254" y="105" type="curve" smooth="yes"/>
      <point x="254" y="108"/>
      <point x="251" y="111"/>
    </contour>
    <contour>
      <point x="247" y="209" type="curve" smooth="yes"/>
      <point x="244" y="209"/>
      <point x="241" y="207"/>
      <point x="241" y="203" type="curve" smooth="yes"/>
      <point x="241" y="200"/>
      <point x="244" y="197"/>
      <point x="247" y="197" type="curve" smooth="yes"/>
      <point x="251" y="197"/>
      <point x="254" y="200"/>
      <point x="254" y="203" type="curve" smooth="yes"/>
      <point x="254" y="207"/>
      <point x="251" y="209"/>
    </contour>
    <contour>
      <point x="198" y="-36" type="curve" smooth="yes"/>
      <point x="195" y="-36"/>
      <point x="192" y="-39"/>
      <point x="192" y="-42" type="curve" smooth="yes"/>
      <point x="192" y="-46"/>
      <point x="195" y="-48"/>
      <point x="198" y="-48" type="curve" smooth="yes"/>
      <point x="201" y="-48"/>
      <point x="204" y="-46"/>
      <point x="204" y="-42" type="curve" smooth="yes"/>
      <point x="204" y="-39"/>
      <point x="201" y="-36"/>
    </contour>
    <contour>
      <point x="198" y="13" type="curve" smooth="yes"/>
      <point x="195" y="13"/>
      <point x="192" y="10"/>
      <point x="192" y="7" type="curve" smooth="yes"/>
      <point x="192" y="4"/>
      <point x="195" y="1"/>
      <point x="198" y="1" type="curve" smooth="yes"/>
      <point x="201" y="1"/>
      <point x="204" y="4"/>
      <point x="204" y="7" type="curve" smooth="yes"/>
      <point x="204" y="10"/>
      <point x="201" y="13"/>
    </contour>
    <contour>
      <point x="198" y="62" type="curve" smooth="yes"/>
      <point x="195" y="62"/>
      <point x="192" y="59"/>
      <point x="192" y="56" type="curve" smooth="yes"/>
      <point x="192" y="53"/>
      <point x="195" y="50"/>
      <point x="198" y="50" type="curve" smooth="yes"/>
      <point x="201" y="50"/>
      <point x="204" y="53"/>
      <point x="204" y="56" type="curve" smooth="yes"/>
      <point x="204" y="59"/>
      <point x="201" y="62"/>
    </contour>
    <contour>
      <point x="198" y="111" type="curve" smooth="yes"/>
      <point x="195" y="111"/>
      <point x="192" y="108"/>
      <point x="192" y="105" type="curve" smooth="yes"/>
      <point x="192" y="102"/>
      <point x="195" y="99"/>
      <point x="198" y="99" type="curve" smooth="yes"/>
      <point x="201" y="99"/>
      <point x="204" y="102"/>
      <point x="204" y="105" type="curve" smooth="yes"/>
      <point x="204" y="108"/>
      <point x="201" y="111"/>
    </contour>
    <contour>
      <point x="198" y="209" type="curve" smooth="yes"/>
      <point x="195" y="209"/>
      <point x="192" y="207"/>
      <point x="192" y="203" type="curve" smooth="yes"/>
      <point x="192" y="200"/>
      <point x="195" y="197"/>
      <point x="198" y="197" type="curve" smooth="yes"/>
      <point x="201" y="197"/>
      <point x="204" y="200"/>
      <point x="204" y="203" type="curve" smooth="yes"/>
      <point x="204" y="207"/>
      <point x="201" y="209"/>
    </contour>
    <contour>
      <point x="149" y="-36" type="curve" smooth="yes"/>
      <point x="145" y="-36"/>
      <point x="142" y="-39"/>
      <point x="142" y="-42" type="curve" smooth="yes"/>
      <point x="142" y="-46"/>
      <point x="145" y="-48"/>
      <point x="149" y="-48" type="curve" smooth="yes"/>
      <point x="152" y="-48"/>
      <point x="155" y="-46"/>
      <point x="155" y="-42" type="curve" smooth="yes"/>
      <point x="155" y="-39"/>
      <point x="152" y="-36"/>
    </contour>
    <contour>
      <point x="149" y="13" type="curve" smooth="yes"/>
      <point x="145" y="13"/>
      <point x="142" y="10"/>
      <point x="142" y="7" type="curve" smooth="yes"/>
      <point x="142" y="4"/>
      <point x="145" y="1"/>
      <point x="149" y="1" type="curve" smooth="yes"/>
      <point x="152" y="1"/>
      <point x="155" y="4"/>
      <point x="155" y="7" type="curve" smooth="yes"/>
      <point x="155" y="10"/>
      <point x="152" y="13"/>
    </contour>
    <contour>
      <point x="149" y="62" type="curve" smooth="yes"/>
      <point x="145" y="62"/>
      <point x="142" y="59"/>
      <point x="142" y="56" type="curve" smooth="yes"/>
      <point x="142" y="53"/>
      <point x="145" y="50"/>
      <point x="149" y="50" type="curve" smooth="yes"/>
      <point x="152" y="50"/>
      <point x="155" y="53"/>
      <point x="155" y="56" type="curve" smooth="yes"/>
      <point x="155" y="59"/>
      <point x="152" y="62"/>
    </contour>
    <contour>
      <point x="149" y="111" type="curve" smooth="yes"/>
      <point x="145" y="111"/>
      <point x="142" y="108"/>
      <point x="142" y="105" type="curve" smooth="yes"/>
      <point x="142" y="102"/>
      <point x="145" y="99"/>
      <point x="149" y="99" type="curve" smooth="yes"/>
      <point x="152" y="99"/>
      <point x="155" y="102"/>
      <point x="155" y="105" type="curve" smooth="yes"/>
      <point x="155" y="108"/>
      <point x="152" y="111"/>
    </contour>
    <contour>
      <point x="99" y="-36" type="curve" smooth="yes"/>
      <point x="96" y="-36"/>
      <point x="93" y="-39"/>
      <point x="93" y="-42" type="curve" smooth="yes"/>
      <point x="93" y="-46"/>
      <point x="96" y="-48"/>
      <point x="99" y="-48" type="curve" smooth="yes"/>
      <point x="103" y="-48"/>
      <point x="105" y="-46"/>
      <point x="105" y="-42" type="curve" smooth="yes"/>
      <point x="105" y="-39"/>
      <point x="103" y="-36"/>
    </contour>
    <contour>
      <point x="99" y="13" type="curve" smooth="yes"/>
      <point x="96" y="13"/>
      <point x="93" y="10"/>
      <point x="93" y="7" type="curve" smooth="yes"/>
      <point x="93" y="4"/>
      <point x="96" y="1"/>
      <point x="99" y="1" type="curve" smooth="yes"/>
      <point x="103" y="1"/>
      <point x="105" y="4"/>
      <point x="105" y="7" type="curve" smooth="yes"/>
      <point x="105" y="10"/>
      <point x="103" y="13"/>
    </contour>
    <contour>
      <point x="99" y="62" type="curve" smooth="yes"/>
      <point x="96" y="62"/>
      <point x="93" y="59"/>
      <point x="93" y="56" type="curve" smooth="yes"/>
      <point x="93" y="53"/>
      <point x="96" y="50"/>
      <point x="99" y="50" type="curve" smooth="yes"/>
      <point x="103" y="50"/>
      <point x="105" y="53"/>
      <point x="105" y="56" type="curve" smooth="yes"/>
      <point x="105" y="59"/>
      <point x="103" y="62"/>
    </contour>
    <contour>
      <point x="99" y="258" type="curve" smooth="yes"/>
      <point x="96" y="258"/>
      <point x="93" y="256"/>
      <point x="93" y="252" type="curve" smooth="yes"/>
      <point x="93" y="249"/>
      <point x="96" y="246"/>
      <point x="99" y="246" type="curve" smooth="yes"/>
      <point x="103" y="246"/>
      <point x="105" y="249"/>
      <point x="105" y="252" type="curve" smooth="yes"/>
      <point x="105" y="256"/>
      <point x="103" y="258"/>
    </contour>
    <contour>
      <point x="50" y="-36" type="curve" smooth="yes"/>
      <point x="46" y="-36"/>
      <point x="44" y="-39"/>
      <point x="44" y="-42" type="curve" smooth="yes"/>
      <point x="44" y="-46"/>
      <point x="46" y="-48"/>
      <point x="50" y="-48" type="curve" smooth="yes"/>
      <point x="53" y="-48"/>
      <point x="56" y="-46"/>
      <point x="56" y="-42" type="curve" smooth="yes"/>
      <point x="56" y="-39"/>
      <point x="53" y="-36"/>
    </contour>
    <contour>
      <point x="50" y="111" type="curve" smooth="yes"/>
      <point x="46" y="111"/>
      <point x="44" y="108"/>
      <point x="44" y="105" type="curve" smooth="yes"/>
      <point x="44" y="102"/>
      <point x="46" y="99"/>
      <point x="50" y="99" type="curve" smooth="yes"/>
      <point x="53" y="99"/>
      <point x="56" y="102"/>
      <point x="56" y="105" type="curve" smooth="yes"/>
      <point x="56" y="108"/>
      <point x="53" y="111"/>
    </contour>
    <contour>
      <point x="50" y="160" type="curve" smooth="yes"/>
      <point x="46" y="160"/>
      <point x="44" y="158"/>
      <point x="44" y="154" type="curve" smooth="yes"/>
      <point x="44" y="151"/>
      <point x="46" y="148"/>
      <point x="50" y="148" type="curve" smooth="yes"/>
      <point x="53" y="148"/>
      <point x="56" y="151"/>
      <point x="56" y="154" type="curve" smooth="yes"/>
      <point x="56" y="158"/>
      <point x="53" y="160"/>
    </contour>
    <contour>
      <point x="50" y="209" type="curve" smooth="yes"/>
      <point x="46" y="209"/>
      <point x="44" y="207"/>
      <point x="44" y="203" type="curve" smooth="yes"/>
      <point x="44" y="200"/>
      <point x="46" y="197"/>
      <point x="50" y="197" type="curve" smooth="yes"/>
      <point x="53" y="197"/>
      <point x="56" y="200"/>
      <point x="56" y="203" type="curve" smooth="yes"/>
      <point x="56" y="207"/>
      <point x="53" y="209"/>
    </contour>
    <contour>
      <point x="50" y="258" type="curve" smooth="yes"/>
      <point x="46" y="258"/>
      <point x="44" y="256"/>
      <point x="44" y="252" type="curve" smooth="yes"/>
      <point x="44" y="249"/>
      <point x="46" y="246"/>
      <point x="50" y="246" type="curve" smooth="yes"/>
      <point x="53" y="246"/>
      <point x="56" y="249"/>
      <point x="56" y="252" type="curve" smooth="yes"/>
      <point x="56" y="256"/>
      <point x="53" y="258"/>
    </contour>
  </outline>
</glyph>
<glyph name="acute.cap" format="1">
  <advance width="390"/>
  <outline>
    <contour>
      <point x="283" y="649" type="line"/>
      <point x="278" y="651" type="line"/>
      <point x="212" y="612"/>
      <point x="156" y="583"/>
      <point x="102" y="557" type="curve"/>
      <point x="109" y="542" type="line"/>
      <point x="114" y="539" type="line"/>
      <point x="173" y="569"/>
      <point x="229" y="598"/>
      <point x="288" y="632" type="curve"/>
      <point x="290" y="637" type="line"/>
    </contour>
  </outline>
</glyph>
<glyph name="ae.001" format="1">
  <advance width="688"/>
  <outline>
    <contour>
      <point x="405" y="491" type="move" name="mark0"/>
    </contour>
    <contour>
      <point x="0" y="0" type="move" name="mark1"/>
    </contour>
    <contour>
      <point x="649" y="16" type="line"/>
      <point x="647" y="19" type="line"/>
      <point x="412" y="19" type="line"/>
      <point x="376" y="225" type="line"/>
      <point x="566" y="254" type="line"/>
      <point x="568" y="271" type="line"/>
      <point x="565" y="273" type="line"/>
      <point x="373" y="243" type="line"/>
      <point x="333" y="472" type="line"/>
      <point x="557" y="471" type="line"/>
      <point x="561" y="487" type="line"/>
      <point x="558" y="491" type="line"/>
      <point x="307" y="491" type="line"/>
      <point x="7" y="0" type="line"/>
      <point x="33" y="0" type="line"/>
      <point x="50" y="35" type="line"/>
      <point x="142" y="186" type="line"/>
      <point x="356" y="221" type="line"/>
      <point x="389" y="35" type="line"/>
      <point x="394" y="0" type="line"/>
      <point x="646" y="0" type="line"/>
    </contour>
    <contour>
      <point x="352" y="240" type="line"/>
      <point x="156" y="208" type="line"/>
      <point x="310" y="460" type="line"/>
      <point x="313" y="460" type="line"/>
    </contour>
  </outline>
</glyph>
<glyph name="b.1" format="1">
  <advance width="444"/>
  <outline>
    <contour>
      <point x="448" y="156" type="curve" smooth="yes"/>
      <point x="447" y="158"/>
      <point x="445" y="159"/>
      <point x="443" y="158" type="curve"/>
      <point x="389" y="134" type="line"/>
      <point x="388" y="206"/>
      <point x="342" y="247"/>
      <point x="270" y="257" type="curve"/>
      <point x="319" y="277"/>
      <point x="349" y="319"/>
      <point x="349" y="384" type="curve" smooth="yes"/>
      <point x="349" y="459"/>
      <point x="299" y="507"/>
      <point x="213" y="507" type="curve"/>
      <point x="108" y="506" type="line"/>
      <point x="108" y="10" type="line"/>
      <point x="-1" y="-38" type="line"/>
      <point x="-3" y="-39"/>
      <point x="-4" y="-42"/>
      <point x="-3" y="-44" type="curve" smooth="yes"/>
      <point x="-3" y="-45"/>
      <point x="-1" y="-46"/>
      <point x="0" y="-46" type="curve" smooth="yes"/>
      <point x="1" y="-46"/>
      <point x="2" y="-46"/>
      <point x="2" y="-46" type="curve"/>
      <point x="446" y="150" type="line"/>
      <point x="448" y="151"/>
      <point x="449" y="154"/>
    </contour>
    <contour>
      <point x="128" y="488" type="line"/>
      <point x="216" y="488" type="line"/>
      <point x="284" y="488"/>
      <point x="327" y="443"/>
      <point x="327" y="383" type="curve" smooth="yes"/>
      <point x="327" y="319"/>
      <point x="294" y="274"/>
      <point x="234" y="263" type="curve"/>
      <point x="128" y="265" type="line"/>
    </contour>
    <contour>
      <point x="128" y="244" type="line"/>
      <point x="241" y="245" type="line"/>
      <point x="323" y="237"/>
      <point x="368" y="198"/>
      <point x="368" y="131" type="curve" smooth="yes"/>
      <point x="368" y="129"/>
      <point x="368" y="127"/>
      <point x="368" y="125" type="curve"/>
      <point x="128" y="19" type="line"/>
    </contour>
    <contour>
      <point x="444" y="111" type="curve" smooth="yes"/>
      <point x="441" y="111"/>
      <point x="438" y="108"/>
      <point x="438" y="105" type="curve" smooth="yes"/>
      <point x="438" y="102"/>
      <point x="441" y="99"/>
      <point x="444" y="99" type="curve" smooth="yes"/>
      <point x="448" y="99"/>
      <point x="451" y="102"/>
      <point x="451" y="105" type="curve" smooth="yes"/>
      <point x="451" y="108"/>
      <point x="448" y="111"/>
    </contour>
    <contour>
      <point x="395" y="-36" type="curve" smooth="yes"/>
      <point x="392" y="-36"/>
      <point x="389" y="-39"/>
      <point x="389" y="-42" type="curve" smooth="yes"/>
      <point x="389" y="-46"/>
      <point x="392" y="-48"/>
      <point x="395" y="-48" type="curve" smooth="yes"/>
      <point x="398" y="-48"/>
      <point x="401" y="-46"/>
      <point x="401" y="-42" type="curve" smooth="yes"/>
      <point x="401" y="-39"/>
      <point x="398" y="-36"/>
    </contour>
    <contour>
      <point x="395" y="13" type="curve" smooth="yes"/>
      <point x="392" y="13"/>
      <point x="389" y="10"/>
      <point x="389" y="7" type="curve" smooth="yes"/>
      <point x="389" y="4"/>
      <point x="392" y="1"/>
      <point x="395" y="1" type="curve" smooth="yes"/>
      <point x="398" y="1"/>
      <point x="401" y="4"/>
      <point x="401" y="7" type="curve" smooth="yes"/>
      <point x="401" y="10"/>
      <point x="398" y="13"/>
    </contour>
    <contour>
      <point x="395" y="62" type="curve" smooth="yes"/>
      <point x="392" y="62"/>
      <point x="389" y="59"/>
      <point x="389" y="56" type="curve" smooth="yes"/>
      <point x="389" y="53"/>
      <point x="392" y="50"/>
      <point x="395" y="50" type="curve" smooth="yes"/>
      <point x="398" y="50"/>
      <point x="401" y="53"/>
      <point x="401" y="56" type="curve" smooth="yes"/>
      <point x="401" y="59"/>
      <point x="398" y="62"/>
    </contour>
    <contour>
      <point x="444" y="-36" type="curve" smooth="yes"/>
      <point x="441" y="-36"/>
      <point x="438" y="-39"/>
      <point x="438" y="-42" type="curve" smooth="yes"/>
      <point x="438" y="-46"/>
      <point x="441" y="-48"/>
      <point x="444" y="-48" type="curve" smooth="yes"/>
      <point x="448" y="-48"/>
      <point x="451" y="-46"/>
      <point x="451" y="-42" type="curve" smooth="yes"/>
      <point x="451" y="-39"/>
      <point x="448" y="-36"/>
    </contour>
    <contour>
      <point x="444" y="13" type="curve" smooth="yes"/>
      <point x="441" y="13"/>
      <point x="438" y="10"/>
      <point x="438" y="7" type="curve" smooth="yes"/>
      <point x="438" y="4"/>
      <point x="441" y="1"/>
      <point x="444" y="1" type="curve" smooth="yes"/>
      <point x="448" y="1"/>
      <point x="451" y="4"/>
      <point x="451" y="7" type="curve" smooth="yes"/>
      <point x="451" y="10"/>
      <point x="448" y="13"/>
    </contour>
    <contour>
      <point x="444" y="62" type="curve" smooth="yes"/>
      <point x="441" y="62"/>
      <point x="438" y="59"/>
      <point x="438" y="56" type="curve" smooth="yes"/>
      <point x="438" y="53"/>
      <point x="441" y="50"/>
      <point x="444" y="50" type="curve" smooth="yes"/>
      <point x="448" y="50"/>
      <point x="451" y="53"/>
      <point x="451" y="56" type="curve" smooth="yes"/>
      <point x="451" y="59"/>
      <point x="448" y="62"/>
    </contour>
    <contour>
      <point x="395" y="111" type="curve" smooth="yes"/>
      <point x="392" y="111"/>
      <point x="389" y="108"/>
      <point x="389" y="105" type="curve" smooth="yes"/>
      <point x="389" y="102"/>
      <point x="392" y="99"/>
      <point x="395" y="99" type="curve" smooth="yes"/>
      <point x="398" y="99"/>
      <point x="401" y="102"/>
      <point x="401" y="105" type="curve" smooth="yes"/>
      <point x="401" y="108"/>
      <point x="398" y="111"/>
    </contour>
    <contour>
      <point x="346" y="-36" type="curve" smooth="yes"/>
      <point x="342" y="-36"/>
      <point x="340" y="-39"/>
      <point x="340" y="-42" type="curve" smooth="yes"/>
      <point x="340" y="-46"/>
      <point x="342" y="-48"/>
      <point x="346" y="-48" type="curve" smooth="yes"/>
      <point x="349" y="-48"/>
      <point x="352" y="-46"/>
      <point x="352" y="-42" type="curve" smooth="yes"/>
      <point x="352" y="-39"/>
      <point x="349" y="-36"/>
    </contour>
    <contour>
      <point x="346" y="13" type="curve" smooth="yes"/>
      <point x="342" y="13"/>
      <point x="340" y="10"/>
      <point x="340" y="7" type="curve" smooth="yes"/>
      <point x="340" y="4"/>
      <point x="342" y="1"/>
      <point x="346" y="1" type="curve" smooth="yes"/>
      <point x="349" y="1"/>
      <point x="352" y="4"/>
      <point x="352" y="7" type="curve" smooth="yes"/>
      <point x="352" y="10"/>
      <point x="349" y="13"/>
    </contour>
    <contour>
      <point x="346" y="62" type="curve" smooth="yes"/>
      <point x="342" y="62"/>
      <point x="340" y="59"/>
      <point x="340" y="56" type="curve" smooth="yes"/>
      <point x="340" y="53"/>
      <point x="342" y="50"/>
      <point x="346" y="50" type="curve" smooth="yes"/>
      <point x="349" y="50"/>
      <point x="352" y="53"/>
      <point x="352" y="56" type="curve" smooth="yes"/>
      <point x="352" y="59"/>
      <point x="349" y="62"/>
    </contour>
    <contour>
      <point x="296" y="-36" type="curve" smooth="yes"/>
      <point x="293" y="-36"/>
      <point x="290" y="-39"/>
      <point x="290" y="-42" type="curve" smooth="yes"/>
      <point x="290" y="-46"/>
      <point x="293" y="-48"/>
      <point x="296" y="-48" type="curve" smooth="yes"/>
      <point x="300" y="-48"/>
      <point x="303" y="-46"/>
      <point x="303" y="-42" type="curve" smooth="yes"/>
      <point x="303" y="-39"/>
      <point x="300" y="-36"/>
    </contour>
    <contour>
      <point x="296" y="13" type="curve" smooth="yes"/>
      <point x="293" y="13"/>
      <point x="290" y="10"/>
      <point x="290" y="7" type="curve" smooth="yes"/>
      <point x="290" y="4"/>
      <point x="293" y="1"/>
      <point x="296" y="1" type="curve" smooth="yes"/>
      <point x="300" y="1"/>
      <point x="303" y="4"/>
      <point x="303" y="7" type="curve" smooth="yes"/>
      <point x="303" y="10"/>
      <point x="300" y="13"/>
    </contour>
    <contour>
      <point x="296" y="62" type="curve" smooth="yes"/>
      <point x="293" y="62"/>
      <point x="290" y="59"/>
      <point x="290" y="56" type="curve" smooth="yes"/>
      <point x="290" y="53"/>
      <point x="293" y="50"/>
      <point x="296" y="50" type="curve" smooth="yes"/>
      <point x="300" y="50"/>
      <point x="303" y="53"/>
      <point x="303" y="56" type="curve" smooth="yes"/>
      <point x="303" y="59"/>
      <point x="300" y="62"/>
    </contour>
    <contour>
      <point x="247" y="-36" type="curve" smooth="yes"/>
      <point x="244" y="-36"/>
      <point x="241" y="-39"/>
      <point x="241" y="-42" type="curve" smooth="yes"/>
      <point x="241" y="-46"/>
      <point x="244" y="-48"/>
      <point x="247" y="-48" type="curve" smooth="yes"/>
      <point x="250" y="-48"/>
      <point x="253" y="-46"/>
      <point x="253" y="-42" type="curve" smooth="yes"/>
      <point x="253" y="-39"/>
      <point x="250" y="-36"/>
    </contour>
    <contour>
      <point x="247" y="13" type="curve" smooth="yes"/>
      <point x="244" y="13"/>
      <point x="241" y="10"/>
      <point x="241" y="7" type="curve" smooth="yes"/>
      <point x="241" y="4"/>
      <point x="244" y="1"/>
      <point x="247" y="1" type="curve" smooth="yes"/>
      <point x="250" y="1"/>
      <point x="253" y="4"/>
      <point x="253" y="7" type="curve" smooth="yes"/>
      <point x="253" y="10"/>
      <point x="250" y="13"/>
    </contour>
    <contour>
      <point x="198" y="-36" type="curve" smooth="yes"/>
      <point x="194" y="-36"/>
      <point x="192" y="-39"/>
      <point x="192" y="-42" type="curve" smooth="yes"/>
      <point x="192" y="-46"/>
      <point x="194" y="-48"/>
      <point x="198" y="-48" type="curve" smooth="yes"/>
      <point x="201" y="-48"/>
      <point x="204" y="-46"/>
      <point x="204" y="-42" type="curve" smooth="yes"/>
      <point x="204" y="-39"/>
      <point x="201" y="-36"/>
    </contour>
    <contour>
      <point x="198" y="13" type="curve" smooth="yes"/>
      <point x="194" y="13"/>
      <point x="192" y="10"/>
      <point x="192" y="7" type="curve" smooth="yes"/>
      <point x="192" y="4"/>
      <point x="194" y="1"/>
      <point x="198" y="1" type="curve" smooth="yes"/>
      <point x="201" y="1"/>
      <point x="204" y="4"/>
      <point x="204" y="7" type="curve" smooth="yes"/>
      <point x="204" y="10"/>
      <point x="201" y="13"/>
    </contour>
    <contour>
      <point x="148" y="-36" type="curve" smooth="yes"/>
      <point x="145" y="-36"/>
      <point x="142" y="-39"/>
      <point x="142" y="-42" type="curve" smooth="yes"/>
      <point x="142" y="-46"/>
      <point x="145" y="-48"/>
      <point x="148" y="-48" type="curve" smooth="yes"/>
      <point x="152" y="-48"/>
      <point x="155" y="-46"/>
      <point x="155" y="-42" type="curve" smooth="yes"/>
      <point x="155" y="-39"/>
      <point x="152" y="-36"/>
    </contour>
    <contour>
      <point x="99" y="-36" type="curve" smooth="yes"/>
      <point x="96" y="-36"/>
      <point x="93" y="-39"/>
      <point x="93" y="-42" type="curve" smooth="yes"/>
      <point x="93" y="-46"/>
      <point x="96" y="-48"/>
      <point x="99" y="-48" type="curve" smooth="yes"/>
      <point x="102" y="-48"/>
      <point x="105" y="-46"/>
      <point x="105" y="-42" type="curve" smooth="yes"/>
      <point x="105" y="-39"/>
      <point x="102" y="-36"/>
    </contour>
    <contour>
      <point x="50" y="-36" type="curve" smooth="yes"/>
      <point x="46" y="-36"/>
      <point x="44" y="-39"/>
      <point x="44" y="-42" type="curve" smooth="yes"/>
      <point x="44" y="-46"/>
      <point x="46" y="-48"/>
      <point x="50" y="-48" type="curve" smooth="yes"/>
      <point x="53" y="-48"/>
      <point x="56" y="-46"/>
      <point x="56" y="-42" type="curve" smooth="yes"/>
      <point x="56" y="-39"/>
      <point x="53" y="-36"/>
    </contour>
  </outline>
</glyph>
<glyph name="b.1.1" format="1">
  <advance width="444"/>
  <outline>
    <contour>
      <point x="-4" y="154" type="curve" smooth="yes"/>
      <point x="-4" y="152"/>
      <point x="-2" y="150"/>
      <point x="0" y="150" type="curve"/>
      <point x="83" y="150" type="line"/>
      <point x="83" y="158" type="line"/>
      <point x="0" y="158" type="line"/>
      <point x="-2" y="158"/>
      <point x="-4" y="156"/>
    </contour>
    <contour>
      <point x="444" y="158" type="curve"/>
      <point x="387" y="158" type="line"/>
      <point x="377" y="215"/>
      <point x="334" y="248"/>
      <point x="270" y="256" type="curve"/>
      <point x="319" y="276"/>
      <point x="349" y="318"/>
      <point x="349" y="383" type="curve" smooth="yes"/>
      <point x="349" y="458"/>
      <point x="299" y="507"/>
      <point x="213" y="507" type="curve"/>
      <point x="108" y="506" type="line"/>
      <point x="108" y="0" type="line"/>
      <point x="137" y="-2"/>
      <point x="174" y="-2"/>
      <point x="200" y="-2" type="curve" smooth="yes"/>
      <point x="317" y="-2"/>
      <point x="384" y="35"/>
      <point x="389" y="119" type="curve"/>
      <point x="368" y="119" type="line"/>
      <point x="362" y="50"/>
      <point x="302" y="16"/>
      <point x="197" y="16" type="curve" smooth="yes"/>
      <point x="174" y="16"/>
      <point x="150" y="17"/>
      <point x="128" y="20" type="curve"/>
      <point x="128" y="243" type="line"/>
      <point x="241" y="244" type="line"/>
      <point x="311" y="238"/>
      <point x="354" y="208"/>
      <point x="365" y="158" type="curve"/>
      <point x="153" y="158" type="line"/>
      <point x="153" y="150" type="line"/>
      <point x="444" y="150" type="line"/>
      <point x="447" y="150"/>
      <point x="448" y="152"/>
      <point x="448" y="154" type="curve" smooth="yes"/>
      <point x="448" y="156"/>
      <point x="447" y="158"/>
    </contour>
    <contour>
      <point x="234" y="263" type="curve"/>
      <point x="128" y="265" type="line"/>
      <point x="128" y="487" type="line"/>
      <point x="216" y="487" type="line"/>
      <point x="284" y="487"/>
      <point x="327" y="443"/>
      <point x="327" y="382" type="curve" smooth="yes"/>
      <point x="327" y="318"/>
      <point x="294" y="274"/>
    </contour>
    <contour>
      <point x="444" y="-36" type="curve" smooth="yes"/>
      <point x="441" y="-36"/>
      <point x="438" y="-39"/>
      <point x="438" y="-42" type="curve" smooth="yes"/>
      <point x="438" y="-46"/>
      <point x="441" y="-48"/>
      <point x="444" y="-48" type="curve" smooth="yes"/>
      <point x="448" y="-48"/>
      <point x="451" y="-46"/>
      <point x="451" y="-42" type="curve" smooth="yes"/>
      <point x="451" y="-39"/>
      <point x="448" y="-36"/>
    </contour>
    <contour>
      <point x="444" y="13" type="curve" smooth="yes"/>
      <point x="441" y="13"/>
      <point x="438" y="10"/>
      <point x="438" y="7" type="curve" smooth="yes"/>
      <point x="438" y="4"/>
      <point x="441" y="1"/>
      <point x="444" y="1" type="curve" smooth="yes"/>
      <point x="448" y="1"/>
      <point x="451" y="4"/>
      <point x="451" y="7" type="curve" smooth="yes"/>
      <point x="451" y="10"/>
      <point x="448" y="13"/>
    </contour>
    <contour>
      <point x="444" y="62" type="curve" smooth="yes"/>
      <point x="441" y="62"/>
      <point x="438" y="59"/>
      <point x="438" y="56" type="curve" smooth="yes"/>
      <point x="438" y="53"/>
      <point x="441" y="50"/>
      <point x="444" y="50" type="curve" smooth="yes"/>
      <point x="448" y="50"/>
      <point x="451" y="53"/>
      <point x="451" y="56" type="curve" smooth="yes"/>
      <point x="451" y="59"/>
      <point x="448" y="62"/>
    </contour>
    <contour>
      <point x="444" y="111" type="curve" smooth="yes"/>
      <point x="441" y="111"/>
      <point x="438" y="108"/>
      <point x="438" y="105" type="curve" smooth="yes"/>
      <point x="438" y="102"/>
      <point x="441" y="99"/>
      <point x="444" y="99" type="curve" smooth="yes"/>
      <point x="448" y="99"/>
      <point x="451" y="102"/>
      <point x="451" y="105" type="curve" smooth="yes"/>
      <point x="451" y="108"/>
      <point x="448" y="111"/>
    </contour>
    <contour>
      <point x="395" y="-36" type="curve" smooth="yes"/>
      <point x="392" y="-36"/>
      <point x="389" y="-39"/>
      <point x="389" y="-42" type="curve" smooth="yes"/>
      <point x="389" y="-46"/>
      <point x="392" y="-48"/>
      <point x="395" y="-48" type="curve" smooth="yes"/>
      <point x="398" y="-48"/>
      <point x="401" y="-46"/>
      <point x="401" y="-42" type="curve" smooth="yes"/>
      <point x="401" y="-39"/>
      <point x="398" y="-36"/>
    </contour>
    <contour>
      <point x="395" y="13" type="curve" smooth="yes"/>
      <point x="392" y="13"/>
      <point x="389" y="10"/>
      <point x="389" y="7" type="curve" smooth="yes"/>
      <point x="389" y="4"/>
      <point x="392" y="1"/>
      <point x="395" y="1" type="curve" smooth="yes"/>
      <point x="398" y="1"/>
      <point x="401" y="4"/>
      <point x="401" y="7" type="curve" smooth="yes"/>
      <point x="401" y="10"/>
      <point x="398" y="13"/>
    </contour>
    <contour>
      <point x="346" y="-36" type="curve" smooth="yes"/>
      <point x="342" y="-36"/>
      <point x="340" y="-39"/>
      <point x="340" y="-42" type="curve" smooth="yes"/>
      <point x="340" y="-46"/>
      <point x="342" y="-48"/>
      <point x="346" y="-48" type="curve" smooth="yes"/>
      <point x="349" y="-48"/>
      <point x="352" y="-46"/>
      <point x="352" y="-42" type="curve" smooth="yes"/>
      <point x="352" y="-39"/>
      <point x="349" y="-36"/>
    </contour>
    <contour>
      <point x="296" y="-36" type="curve" smooth="yes"/>
      <point x="293" y="-36"/>
      <point x="290" y="-39"/>
      <point x="290" y="-42" type="curve" smooth="yes"/>
      <point x="290" y="-46"/>
      <point x="293" y="-48"/>
      <point x="296" y="-48" type="curve" smooth="yes"/>
      <point x="300" y="-48"/>
      <point x="303" y="-46"/>
      <point x="303" y="-42" type="curve" smooth="yes"/>
      <point x="303" y="-39"/>
      <point x="300" y="-36"/>
    </contour>
    <contour>
      <point x="296" y="111" type="curve" smooth="yes"/>
      <point x="293" y="111"/>
      <point x="290" y="108"/>
      <point x="290" y="105" type="curve" smooth="yes"/>
      <point x="290" y="102"/>
      <point x="293" y="99"/>
      <point x="296" y="99" type="curve" smooth="yes"/>
      <point x="300" y="99"/>
      <point x="303" y="102"/>
      <point x="303" y="105" type="curve" smooth="yes"/>
      <point x="303" y="108"/>
      <point x="300" y="111"/>
    </contour>
    <contour>
      <point x="247" y="-36" type="curve" smooth="yes"/>
      <point x="244" y="-36"/>
      <point x="241" y="-39"/>
      <point x="241" y="-42" type="curve" smooth="yes"/>
      <point x="241" y="-46"/>
      <point x="244" y="-48"/>
      <point x="247" y="-48" type="curve" smooth="yes"/>
      <point x="250" y="-48"/>
      <point x="253" y="-46"/>
      <point x="253" y="-42" type="curve" smooth="yes"/>
      <point x="253" y="-39"/>
      <point x="250" y="-36"/>
    </contour>
    <contour>
      <point x="247" y="62" type="curve" smooth="yes"/>
      <point x="244" y="62"/>
      <point x="241" y="59"/>
      <point x="241" y="56" type="curve" smooth="yes"/>
      <point x="241" y="53"/>
      <point x="244" y="50"/>
      <point x="247" y="50" type="curve" smooth="yes"/>
      <point x="250" y="50"/>
      <point x="253" y="53"/>
      <point x="253" y="56" type="curve" smooth="yes"/>
      <point x="253" y="59"/>
      <point x="250" y="62"/>
    </contour>
    <contour>
      <point x="247" y="111" type="curve" smooth="yes"/>
      <point x="244" y="111"/>
      <point x="241" y="108"/>
      <point x="241" y="105" type="curve" smooth="yes"/>
      <point x="241" y="102"/>
      <point x="244" y="99"/>
      <point x="247" y="99" type="curve" smooth="yes"/>
      <point x="250" y="99"/>
      <point x="253" y="102"/>
      <point x="253" y="105" type="curve" smooth="yes"/>
      <point x="253" y="108"/>
      <point x="250" y="111"/>
    </contour>
    <contour>
      <point x="198" y="-36" type="curve" smooth="yes"/>
      <point x="194" y="-36"/>
      <point x="192" y="-39"/>
      <point x="192" y="-42" type="curve" smooth="yes"/>
      <point x="192" y="-46"/>
      <point x="194" y="-48"/>
      <point x="198" y="-48" type="curve" smooth="yes"/>
      <point x="201" y="-48"/>
      <point x="204" y="-46"/>
      <point x="204" y="-42" type="curve" smooth="yes"/>
      <point x="204" y="-39"/>
      <point x="201" y="-36"/>
    </contour>
    <contour>
      <point x="198" y="62" type="curve" smooth="yes"/>
      <point x="194" y="62"/>
      <point x="192" y="59"/>
      <point x="192" y="56" type="curve" smooth="yes"/>
      <point x="192" y="53"/>
      <point x="194" y="50"/>
      <point x="198" y="50" type="curve" smooth="yes"/>
      <point x="201" y="50"/>
      <point x="204" y="53"/>
      <point x="204" y="56" type="curve" smooth="yes"/>
      <point x="204" y="59"/>
      <point x="201" y="62"/>
    </contour>
    <contour>
      <point x="198" y="111" type="curve" smooth="yes"/>
      <point x="194" y="111"/>
      <point x="192" y="108"/>
      <point x="192" y="105" type="curve" smooth="yes"/>
      <point x="192" y="102"/>
      <point x="194" y="99"/>
      <point x="198" y="99" type="curve" smooth="yes"/>
      <point x="201" y="99"/>
      <point x="204" y="102"/>
      <point x="204" y="105" type="curve" smooth="yes"/>
      <point x="204" y="108"/>
      <point x="201" y="111"/>
    </contour>
    <contour>
      <point x="148" y="-36" type="curve" smooth="yes"/>
      <point x="145" y="-36"/>
      <point x="142" y="-39"/>
      <point x="142" y="-42" type="curve" smooth="yes"/>
      <point x="142" y="-46"/>
      <point x="145" y="-48"/>
      <point x="148" y="-48" type="curve" smooth="yes"/>
      <point x="152" y="-48"/>
      <point x="155" y="-46"/>
      <point x="155" y="-42" type="curve" smooth="yes"/>
      <point x="155" y="-39"/>
      <point x="152" y="-36"/>
    </contour>
    <contour>
      <point x="99" y="-36" type="curve" smooth="yes"/>
      <point x="96" y="-36"/>
      <point x="93" y="-39"/>
      <point x="93" y="-42" type="curve" smooth="yes"/>
      <point x="93" y="-46"/>
      <point x="96" y="-48"/>
      <point x="99" y="-48" type="curve" smooth="yes"/>
      <point x="102" y="-48"/>
      <point x="105" y="-46"/>
      <point x="105" y="-42" type="curve" smooth="yes"/>
      <point x="105" y="-39"/>
      <point x="102" y="-36"/>
    </contour>
    <contour>
      <point x="50" y="-36" type="curve" smooth="yes"/>
      <point x="46" y="-36"/>
      <point x="44" y="-39"/>
      <point x="44" y="-42" type="curve" smooth="yes"/>
      <point x="44" y="-46"/>
      <point x="46" y="-48"/>
      <point x="50" y="-48" type="curve" smooth="yes"/>
      <point x="53" y="-48"/>
      <point x="56" y="-46"/>
      <point x="56" y="-42" type="curve" smooth="yes"/>
      <point x="56" y="-39"/>
      <point x="53" y="-36"/>
    </contour>
    <contour>
      <point x="50" y="13" type="curve" smooth="yes"/>
      <point x="46" y="13"/>
      <point x="44" y="10"/>
      <point x="44" y="7" type="curve" smooth="yes"/>
      <point x="44" y="4"/>
      <point x="46" y="1"/>
      <point x="50" y="1" type="curve" smooth="yes"/>
      <point x="53" y="1"/>
      <point x="56" y="4"/>
      <point x="56" y="7" type="curve" smooth="yes"/>
      <point x="56" y="10"/>
      <point x="53" y="13"/>
    </contour>
    <contour>
      <point x="50" y="62" type="curve" smooth="yes"/>
      <point x="46" y="62"/>
      <point x="44" y="59"/>
      <point x="44" y="56" type="curve" smooth="yes"/>
      <point x="44" y="53"/>
      <point x="46" y="50"/>
      <point x="50" y="50" type="curve" smooth="yes"/>
      <point x="53" y="50"/>
      <point x="56" y="53"/>
      <point x="56" y="56" type="curve" smooth="yes"/>
      <point x="56" y="59"/>
      <point x="53" y="62"/>
    </contour>
    <contour>
      <point x="50" y="111" type="curve" smooth="yes"/>
      <point x="46" y="111"/>
      <point x="44" y="108"/>
      <point x="44" y="105" type="curve" smooth="yes"/>
      <point x="44" y="102"/>
      <point x="46" y="99"/>
      <point x="50" y="99" type="curve" smooth="yes"/>
      <point x="53" y="99"/>
      <point x="56" y="102"/>
      <point x="56" y="105" type="curve" smooth="yes"/>
      <point x="56" y="108"/>
      <point x="53" y="111"/>
    </contour>
  </outline>
</glyph>
<glyph name="b.1.2" format="1">
  <advance width="444"/>
  <outline>
    <contour>
      <point x="311" y="253" type="curve"/>
      <point x="287" y="243" type="line"/>
      <point x="340" y="225"/>
      <point x="368" y="183"/>
      <point x="368" y="130" type="curve" smooth="yes"/>
      <point x="368" y="54"/>
      <point x="307" y="16"/>
      <point x="197" y="16" type="curve" smooth="yes"/>
      <point x="174" y="16"/>
      <point x="148" y="17"/>
      <point x="126" y="20" type="curve"/>
      <point x="126" y="172" type="line"/>
      <point x="106" y="163" type="line"/>
      <point x="106" y="0" type="line"/>
      <point x="135" y="-2"/>
      <point x="174" y="-2"/>
      <point x="200" y="-2" type="curve" smooth="yes"/>
      <point x="322" y="-2"/>
      <point x="389" y="38"/>
      <point x="389" y="130" type="curve" smooth="yes"/>
      <point x="389" y="193"/>
      <point x="360" y="230"/>
    </contour>
    <contour>
      <point x="448" y="352" type="curve" smooth="yes"/>
      <point x="447" y="354"/>
      <point x="445" y="355"/>
      <point x="443" y="354" type="curve"/>
      <point x="339" y="308" type="line"/>
      <point x="349" y="329"/>
      <point x="354" y="353"/>
      <point x="354" y="383" type="curve" smooth="yes"/>
      <point x="354" y="458"/>
      <point x="299" y="507"/>
      <point x="213" y="507" type="curve"/>
      <point x="106" y="506" type="line"/>
      <point x="106" y="206" type="line"/>
      <point x="-1" y="158" type="line"/>
      <point x="-3" y="157"/>
      <point x="-4" y="155"/>
      <point x="-3" y="152" type="curve" smooth="yes"/>
      <point x="-3" y="151"/>
      <point x="-1" y="150"/>
      <point x="0" y="150" type="curve" smooth="yes"/>
      <point x="1" y="150"/>
      <point x="2" y="150"/>
      <point x="2" y="150" type="curve"/>
      <point x="446" y="347" type="line"/>
      <point x="448" y="348"/>
      <point x="449" y="350"/>
    </contour>
    <contour>
      <point x="126" y="487" type="line"/>
      <point x="216" y="487" type="line"/>
      <point x="284" y="487"/>
      <point x="332" y="443"/>
      <point x="332" y="382" type="curve" smooth="yes"/>
      <point x="332" y="343"/>
      <point x="321" y="312"/>
      <point x="299" y="291" type="curve"/>
      <point x="254" y="271" type="line"/>
      <point x="126" y="271" type="line"/>
    </contour>
    <contour>
      <point x="126" y="252" type="line"/>
      <point x="212" y="252" type="line"/>
      <point x="126" y="214" type="line"/>
    </contour>
    <contour>
      <point x="444" y="-36" type="curve" smooth="yes"/>
      <point x="441" y="-36"/>
      <point x="438" y="-39"/>
      <point x="438" y="-42" type="curve" smooth="yes"/>
      <point x="438" y="-46"/>
      <point x="441" y="-48"/>
      <point x="444" y="-48" type="curve" smooth="yes"/>
      <point x="448" y="-48"/>
      <point x="451" y="-46"/>
      <point x="451" y="-42" type="curve" smooth="yes"/>
      <point x="451" y="-39"/>
      <point x="448" y="-36"/>
    </contour>
    <contour>
      <point x="444" y="13" type="curve" smooth="yes"/>
      <point x="441" y="13"/>
      <point x="438" y="10"/>
      <point x="438" y="7" type="curve" smooth="yes"/>
      <point x="438" y="4"/>
      <point x="441" y="1"/>
      <point x="444" y="1" type="curve" smooth="yes"/>
      <point x="448" y="1"/>
      <point x="451" y="4"/>
      <point x="451" y="7" type="curve" smooth="yes"/>
      <point x="451" y="10"/>
      <point x="448" y="13"/>
    </contour>
    <contour>
      <point x="444" y="62" type="curve" smooth="yes"/>
      <point x="441" y="62"/>
      <point x="438" y="59"/>
      <point x="438" y="56" type="curve" smooth="yes"/>
      <point x="438" y="53"/>
      <point x="441" y="50"/>
      <point x="444" y="50" type="curve" smooth="yes"/>
      <point x="448" y="50"/>
      <point x="451" y="53"/>
      <point x="451" y="56" type="curve" smooth="yes"/>
      <point x="451" y="59"/>
      <point x="448" y="62"/>
    </contour>
    <contour>
      <point x="444" y="111" type="curve" smooth="yes"/>
      <point x="441" y="111"/>
      <point x="438" y="108"/>
      <point x="438" y="105" type="curve" smooth="yes"/>
      <point x="438" y="102"/>
      <point x="441" y="99"/>
      <point x="444" y="99" type="curve" smooth="yes"/>
      <point x="448" y="99"/>
      <point x="451" y="102"/>
      <point x="451" y="105" type="curve" smooth="yes"/>
      <point x="451" y="108"/>
      <point x="448" y="111"/>
    </contour>
    <contour>
      <point x="444" y="160" type="curve" smooth="yes"/>
      <point x="441" y="160"/>
      <point x="438" y="158"/>
      <point x="438" y="154" type="curve" smooth="yes"/>
      <point x="438" y="151"/>
      <point x="441" y="148"/>
      <point x="444" y="148" type="curve" smooth="yes"/>
      <point x="448" y="148"/>
      <point x="451" y="151"/>
      <point x="451" y="154" type="curve" smooth="yes"/>
      <point x="451" y="158"/>
      <point x="448" y="160"/>
    </contour>
    <contour>
      <point x="444" y="209" type="curve" smooth="yes"/>
      <point x="441" y="209"/>
      <point x="438" y="207"/>
      <point x="438" y="203" type="curve" smooth="yes"/>
      <point x="438" y="200"/>
      <point x="441" y="197"/>
      <point x="444" y="197" type="curve" smooth="yes"/>
      <point x="448" y="197"/>
      <point x="451" y="200"/>
      <point x="451" y="203" type="curve" smooth="yes"/>
      <point x="451" y="207"/>
      <point x="448" y="209"/>
    </contour>
    <contour>
      <point x="444" y="258" type="curve" smooth="yes"/>
      <point x="441" y="258"/>
      <point x="438" y="256"/>
      <point x="438" y="252" type="curve" smooth="yes"/>
      <point x="438" y="249"/>
      <point x="441" y="246"/>
      <point x="444" y="246" type="curve" smooth="yes"/>
      <point x="448" y="246"/>
      <point x="451" y="249"/>
      <point x="451" y="252" type="curve" smooth="yes"/>
      <point x="451" y="256"/>
      <point x="448" y="258"/>
    </contour>
    <contour>
      <point x="444" y="308" type="curve" smooth="yes"/>
      <point x="441" y="308"/>
      <point x="438" y="305"/>
      <point x="438" y="301" type="curve" smooth="yes"/>
      <point x="438" y="298"/>
      <point x="441" y="295"/>
      <point x="444" y="295" type="curve" smooth="yes"/>
      <point x="448" y="295"/>
      <point x="451" y="298"/>
      <point x="451" y="301" type="curve" smooth="yes"/>
      <point x="451" y="305"/>
      <point x="448" y="308"/>
    </contour>
    <contour>
      <point x="395" y="-36" type="curve" smooth="yes"/>
      <point x="392" y="-36"/>
      <point x="389" y="-39"/>
      <point x="389" y="-42" type="curve" smooth="yes"/>
      <point x="389" y="-46"/>
      <point x="392" y="-48"/>
      <point x="395" y="-48" type="curve" smooth="yes"/>
      <point x="398" y="-48"/>
      <point x="401" y="-46"/>
      <point x="401" y="-42" type="curve" smooth="yes"/>
      <point x="401" y="-39"/>
      <point x="398" y="-36"/>
    </contour>
    <contour>
      <point x="395" y="13" type="curve" smooth="yes"/>
      <point x="392" y="13"/>
      <point x="389" y="10"/>
      <point x="389" y="7" type="curve" smooth="yes"/>
      <point x="389" y="4"/>
      <point x="392" y="1"/>
      <point x="395" y="1" type="curve" smooth="yes"/>
      <point x="398" y="1"/>
      <point x="401" y="4"/>
      <point x="401" y="7" type="curve" smooth="yes"/>
      <point x="401" y="10"/>
      <point x="398" y="13"/>
    </contour>
    <contour>
      <point x="395" y="258" type="curve" smooth="yes"/>
      <point x="392" y="258"/>
      <point x="389" y="256"/>
      <point x="389" y="252" type="curve" smooth="yes"/>
      <point x="389" y="249"/>
      <point x="392" y="246"/>
      <point x="395" y="246" type="curve" smooth="yes"/>
      <point x="398" y="246"/>
      <point x="401" y="249"/>
      <point x="401" y="252" type="curve" smooth="yes"/>
      <point x="401" y="256"/>
      <point x="398" y="258"/>
    </contour>
    <contour>
      <point x="346" y="-36" type="curve" smooth="yes"/>
      <point x="342" y="-36"/>
      <point x="340" y="-39"/>
      <point x="340" y="-42" type="curve" smooth="yes"/>
      <point x="340" y="-46"/>
      <point x="342" y="-48"/>
      <point x="346" y="-48" type="curve" smooth="yes"/>
      <point x="349" y="-48"/>
      <point x="352" y="-46"/>
      <point x="352" y="-42" type="curve" smooth="yes"/>
      <point x="352" y="-39"/>
      <point x="349" y="-36"/>
    </contour>
    <contour>
      <point x="296" y="-36" type="curve" smooth="yes"/>
      <point x="293" y="-36"/>
      <point x="290" y="-39"/>
      <point x="290" y="-42" type="curve" smooth="yes"/>
      <point x="290" y="-46"/>
      <point x="293" y="-48"/>
      <point x="296" y="-48" type="curve" smooth="yes"/>
      <point x="300" y="-48"/>
      <point x="303" y="-46"/>
      <point x="303" y="-42" type="curve" smooth="yes"/>
      <point x="303" y="-39"/>
      <point x="300" y="-36"/>
    </contour>
    <contour>
      <point x="296" y="111" type="curve" smooth="yes"/>
      <point x="293" y="111"/>
      <point x="290" y="108"/>
      <point x="290" y="105" type="curve" smooth="yes"/>
      <point x="290" y="102"/>
      <point x="293" y="99"/>
      <point x="296" y="99" type="curve" smooth="yes"/>
      <point x="300" y="99"/>
      <point x="303" y="102"/>
      <point x="303" y="105" type="curve" smooth="yes"/>
      <point x="303" y="108"/>
      <point x="300" y="111"/>
    </contour>
    <contour>
      <point x="296" y="160" type="curve" smooth="yes"/>
      <point x="293" y="160"/>
      <point x="290" y="158"/>
      <point x="290" y="154" type="curve" smooth="yes"/>
      <point x="290" y="151"/>
      <point x="293" y="148"/>
      <point x="296" y="148" type="curve" smooth="yes"/>
      <point x="300" y="148"/>
      <point x="303" y="151"/>
      <point x="303" y="154" type="curve" smooth="yes"/>
      <point x="303" y="158"/>
      <point x="300" y="160"/>
    </contour>
    <contour>
      <point x="296" y="209" type="curve" smooth="yes"/>
      <point x="293" y="209"/>
      <point x="290" y="207"/>
      <point x="290" y="203" type="curve" smooth="yes"/>
      <point x="290" y="200"/>
      <point x="293" y="197"/>
      <point x="296" y="197" type="curve" smooth="yes"/>
      <point x="300" y="197"/>
      <point x="303" y="200"/>
      <point x="303" y="203" type="curve" smooth="yes"/>
      <point x="303" y="207"/>
      <point x="300" y="209"/>
    </contour>
    <contour>
      <point x="247" y="-36" type="curve" smooth="yes"/>
      <point x="244" y="-36"/>
      <point x="241" y="-39"/>
      <point x="241" y="-42" type="curve" smooth="yes"/>
      <point x="241" y="-46"/>
      <point x="244" y="-48"/>
      <point x="247" y="-48" type="curve" smooth="yes"/>
      <point x="250" y="-48"/>
      <point x="253" y="-46"/>
      <point x="253" y="-42" type="curve" smooth="yes"/>
      <point x="253" y="-39"/>
      <point x="250" y="-36"/>
    </contour>
    <contour>
      <point x="247" y="62" type="curve" smooth="yes"/>
      <point x="244" y="62"/>
      <point x="241" y="59"/>
      <point x="241" y="56" type="curve" smooth="yes"/>
      <point x="241" y="53"/>
      <point x="244" y="50"/>
      <point x="247" y="50" type="curve" smooth="yes"/>
      <point x="250" y="50"/>
      <point x="253" y="53"/>
      <point x="253" y="56" type="curve" smooth="yes"/>
      <point x="253" y="59"/>
      <point x="250" y="62"/>
    </contour>
    <contour>
      <point x="247" y="111" type="curve" smooth="yes"/>
      <point x="244" y="111"/>
      <point x="241" y="108"/>
      <point x="241" y="105" type="curve" smooth="yes"/>
      <point x="241" y="102"/>
      <point x="244" y="99"/>
      <point x="247" y="99" type="curve" smooth="yes"/>
      <point x="250" y="99"/>
      <point x="253" y="102"/>
      <point x="253" y="105" type="curve" smooth="yes"/>
      <point x="253" y="108"/>
      <point x="250" y="111"/>
    </contour>
    <contour>
      <point x="247" y="160" type="curve" smooth="yes"/>
      <point x="244" y="160"/>
      <point x="241" y="158"/>
      <point x="241" y="154" type="curve" smooth="yes"/>
      <point x="241" y="151"/>
      <point x="244" y="148"/>
      <point x="247" y="148" type="curve" smooth="yes"/>
      <point x="250" y="148"/>
      <point x="253" y="151"/>
      <point x="253" y="154" type="curve" smooth="yes"/>
      <point x="253" y="158"/>
      <point x="250" y="160"/>
    </contour>
    <contour>
      <point x="247" y="209" type="curve" smooth="yes"/>
      <point x="244" y="209"/>
      <point x="241" y="207"/>
      <point x="241" y="203" type="curve" smooth="yes"/>
      <point x="241" y="200"/>
      <point x="244" y="197"/>
      <point x="247" y="197" type="curve" smooth="yes"/>
      <point x="250" y="197"/>
      <point x="253" y="200"/>
      <point x="253" y="203" type="curve" smooth="yes"/>
      <point x="253" y="207"/>
      <point x="250" y="209"/>
    </contour>
    <contour>
      <point x="198" y="-36" type="curve" smooth="yes"/>
      <point x="194" y="-36"/>
      <point x="192" y="-39"/>
      <point x="192" y="-42" type="curve" smooth="yes"/>
      <point x="192" y="-46"/>
      <point x="194" y="-48"/>
      <point x="198" y="-48" type="curve" smooth="yes"/>
      <point x="201" y="-48"/>
      <point x="204" y="-46"/>
      <point x="204" y="-42" type="curve" smooth="yes"/>
      <point x="204" y="-39"/>
      <point x="201" y="-36"/>
    </contour>
    <contour>
      <point x="198" y="62" type="curve" smooth="yes"/>
      <point x="194" y="62"/>
      <point x="192" y="59"/>
      <point x="192" y="56" type="curve" smooth="yes"/>
      <point x="192" y="53"/>
      <point x="194" y="50"/>
      <point x="198" y="50" type="curve" smooth="yes"/>
      <point x="201" y="50"/>
      <point x="204" y="53"/>
      <point x="204" y="56" type="curve" smooth="yes"/>
      <point x="204" y="59"/>
      <point x="201" y="62"/>
    </contour>
    <contour>
      <point x="198" y="111" type="curve" smooth="yes"/>
      <point x="194" y="111"/>
      <point x="192" y="108"/>
      <point x="192" y="105" type="curve" smooth="yes"/>
      <point x="192" y="102"/>
      <point x="194" y="99"/>
      <point x="198" y="99" type="curve" smooth="yes"/>
      <point x="201" y="99"/>
      <point x="204" y="102"/>
      <point x="204" y="105" type="curve" smooth="yes"/>
      <point x="204" y="108"/>
      <point x="201" y="111"/>
    </contour>
    <contour>
      <point x="198" y="160" type="curve" smooth="yes"/>
      <point x="194" y="160"/>
      <point x="192" y="158"/>
      <point x="192" y="154" type="curve" smooth="yes"/>
      <point x="192" y="151"/>
      <point x="194" y="148"/>
      <point x="198" y="148" type="curve" smooth="yes"/>
      <point x="201" y="148"/>
      <point x="204" y="151"/>
      <point x="204" y="154" type="curve" smooth="yes"/>
      <point x="204" y="158"/>
      <point x="201" y="160"/>
    </contour>
    <contour>
      <point x="198" y="209" type="curve" smooth="yes"/>
      <point x="194" y="209"/>
      <point x="192" y="207"/>
      <point x="192" y="203" type="curve" smooth="yes"/>
      <point x="192" y="200"/>
      <point x="194" y="197"/>
      <point x="198" y="197" type="curve" smooth="yes"/>
      <point x="201" y="197"/>
      <point x="204" y="200"/>
      <point x="204" y="203" type="curve" smooth="yes"/>
      <point x="204" y="207"/>
      <point x="201" y="209"/>
    </contour>
    <contour>
      <point x="148" y="-36" type="curve" smooth="yes"/>
      <point x="145" y="-36"/>
      <point x="142" y="-39"/>
      <point x="142" y="-42" type="curve" smooth="yes"/>
      <point x="142" y="-46"/>
      <point x="145" y="-48"/>
      <point x="148" y="-48" type="curve" smooth="yes"/>
      <point x="152" y="-48"/>
      <point x="155" y="-46"/>
      <point x="155" y="-42" type="curve" smooth="yes"/>
      <point x="155" y="-39"/>
      <point x="152" y="-36"/>
    </contour>
    <contour>
      <point x="99" y="-36" type="curve" smooth="yes"/>
      <point x="96" y="-36"/>
      <point x="93" y="-39"/>
      <point x="93" y="-42" type="curve" smooth="yes"/>
      <point x="93" y="-46"/>
      <point x="96" y="-48"/>
      <point x="99" y="-48" type="curve" smooth="yes"/>
      <point x="102" y="-48"/>
      <point x="105" y="-46"/>
      <point x="105" y="-42" type="curve" smooth="yes"/>
      <point x="105" y="-39"/>
      <point x="102" y="-36"/>
    </contour>
    <contour>
      <point x="50" y="-36" type="curve" smooth="yes"/>
      <point x="46" y="-36"/>
      <point x="44" y="-39"/>
      <point x="44" y="-42" type="curve" smooth="yes"/>
      <point x="44" y="-46"/>
      <point x="46" y="-48"/>
      <point x="50" y="-48" type="curve" smooth="yes"/>
      <point x="53" y="-48"/>
      <point x="56" y="-46"/>
      <point x="56" y="-42" type="curve" smooth="yes"/>
      <point x="56" y="-39"/>
      <point x="53" y="-36"/>
    </contour>
    <contour>
      <point x="50" y="13" type="curve" smooth="yes"/>
      <point x="46" y="13"/>
      <point x="44" y="10"/>
      <point x="44" y="7" type="curve" smooth="yes"/>
      <point x="44" y="4"/>
      <point x="46" y="1"/>
      <point x="50" y="1" type="curve" smooth="yes"/>
      <point x="53" y="1"/>
      <point x="56" y="4"/>
      <point x="56" y="7" type="curve" smooth="yes"/>
      <point x="56" y="10"/>
      <point x="53" y="13"/>
    </contour>
    <contour>
      <point x="50" y="62" type="curve" smooth="yes"/>
      <point x="46" y="62"/>
      <point x="44" y="59"/>
      <point x="44" y="56" type="curve" smooth="yes"/>
      <point x="44" y="53"/>
      <point x="46" y="50"/>
      <point x="50" y="50" type="curve" smooth="yes"/>
      <point x="53" y="50"/>
      <point x="56" y="53"/>
      <point x="56" y="56" type="curve" smooth="yes"/>
      <point x="56" y="59"/>
      <point x="53" y="62"/>
    </contour>
    <contour>
      <point x="50" y="111" type="curve" smooth="yes"/>
      <point x="46" y="111"/>
      <point x="44" y="108"/>
      <point x="44" y="105" type="curve" smooth="yes"/>
      <point x="44" y="102"/>
      <point x="46" y="99"/>
      <point x="50" y="99" type="curve" smooth="yes"/>
      <point x="53" y="99"/>
      <point x="56" y="102"/>
      <point x="56" y="105" type="curve" smooth="yes"/>
      <point x="56" y="108"/>
      <point x="53" y="111"/>
    </contour>
  </outline>
</glyph>
<glyph name="b.2.0" format="1">
  <advance width="444"/>
  <outline>
    <contour>
      <point x="448" y="-40" type="curve" smooth="yes"/>
      <point x="448" y="-39"/>
      <point x="447" y="-39"/>
      <point x="447" y="-39" type="curve"/>
      <point x="356" y="42" type="line"/>
      <point x="378" y="63"/>
      <point x="389" y="92"/>
      <point x="389" y="130" type="curve" smooth="yes"/>
      <point x="389" y="204"/>
      <point x="343" y="246"/>
      <point x="270" y="256" type="curve"/>
      <point x="319" y="276"/>
      <point x="349" y="318"/>
      <point x="349" y="383" type="curve" smooth="yes"/>
      <point x="349" y="458"/>
      <point x="299" y="507"/>
      <point x="213" y="507" type="curve"/>
      <point x="108" y="506" type="line"/>
      <point x="108" y="0" type="line"/>
      <point x="137" y="-2"/>
      <point x="174" y="-2"/>
      <point x="200" y="-2" type="curve" smooth="yes"/>
      <point x="251" y="-2"/>
      <point x="292" y="5"/>
      <point x="322" y="19" type="curve"/>
      <point x="305" y="34" type="line"/>
      <point x="277" y="22"/>
      <point x="241" y="16"/>
      <point x="197" y="16" type="curve" smooth="yes"/>
      <point x="174" y="16"/>
      <point x="150" y="17"/>
      <point x="128" y="20" type="curve"/>
      <point x="128" y="243" type="line"/>
      <point x="241" y="244" type="line"/>
      <point x="323" y="237"/>
      <point x="368" y="197"/>
      <point x="368" y="130" type="curve" smooth="yes"/>
      <point x="368" y="99"/>
      <point x="358" y="75"/>
      <point x="339" y="57" type="curve"/>
      <point x="156" y="218" type="line"/>
      <point x="153" y="218" type="line"/>
      <point x="153" y="209" type="line"/>
      <point x="442" y="-45" type="line"/>
      <point x="442" y="-46"/>
      <point x="443" y="-47"/>
      <point x="444" y="-47" type="curve" smooth="yes"/>
      <point x="446" y="-47"/>
      <point x="447" y="-46"/>
      <point x="448" y="-45" type="curve" smooth="yes"/>
      <point x="449" y="-44"/>
      <point x="449" y="-41"/>
    </contour>
    <contour>
      <point x="234" y="263" type="curve"/>
      <point x="128" y="265" type="line"/>
      <point x="128" y="487" type="line"/>
      <point x="216" y="487" type="line"/>
      <point x="284" y="487"/>
      <point x="327" y="443"/>
      <point x="327" y="382" type="curve" smooth="yes"/>
      <point x="327" y="318"/>
      <point x="294" y="274"/>
    </contour>
    <contour>
      <point x="-3" y="353" type="curve" smooth="yes"/>
      <point x="-4" y="352"/>
      <point x="-4" y="349"/>
      <point x="-2" y="347" type="curve"/>
      <point x="83" y="271" type="line"/>
      <point x="83" y="283" type="line"/>
      <point x="3" y="354" type="line"/>
      <point x="2" y="355"/>
      <point x="-1" y="355"/>
    </contour>
    <contour>
      <point x="395" y="-36" type="curve" smooth="yes"/>
      <point x="392" y="-36"/>
      <point x="389" y="-39"/>
      <point x="389" y="-42" type="curve" smooth="yes"/>
      <point x="389" y="-46"/>
      <point x="392" y="-48"/>
      <point x="395" y="-48" type="curve" smooth="yes"/>
      <point x="398" y="-48"/>
      <point x="401" y="-46"/>
      <point x="401" y="-42" type="curve" smooth="yes"/>
      <point x="401" y="-39"/>
      <point x="398" y="-36"/>
    </contour>
    <contour>
      <point x="346" y="-36" type="curve" smooth="yes"/>
      <point x="342" y="-36"/>
      <point x="340" y="-39"/>
      <point x="340" y="-42" type="curve" smooth="yes"/>
      <point x="340" y="-46"/>
      <point x="342" y="-48"/>
      <point x="346" y="-48" type="curve" smooth="yes"/>
      <point x="349" y="-48"/>
      <point x="352" y="-46"/>
      <point x="352" y="-42" type="curve" smooth="yes"/>
      <point x="352" y="-39"/>
      <point x="349" y="-36"/>
    </contour>
    <contour>
      <point x="296" y="-36" type="curve" smooth="yes"/>
      <point x="293" y="-36"/>
      <point x="290" y="-39"/>
      <point x="290" y="-42" type="curve" smooth="yes"/>
      <point x="290" y="-46"/>
      <point x="293" y="-48"/>
      <point x="296" y="-48" type="curve" smooth="yes"/>
      <point x="300" y="-48"/>
      <point x="303" y="-46"/>
      <point x="303" y="-42" type="curve" smooth="yes"/>
      <point x="303" y="-39"/>
      <point x="300" y="-36"/>
    </contour>
    <contour>
      <point x="247" y="-36" type="curve" smooth="yes"/>
      <point x="244" y="-36"/>
      <point x="241" y="-39"/>
      <point x="241" y="-42" type="curve" smooth="yes"/>
      <point x="241" y="-46"/>
      <point x="244" y="-48"/>
      <point x="247" y="-48" type="curve" smooth="yes"/>
      <point x="250" y="-48"/>
      <point x="253" y="-46"/>
      <point x="253" y="-42" type="curve" smooth="yes"/>
      <point x="253" y="-39"/>
      <point x="250" y="-36"/>
    </contour>
    <contour>
      <point x="247" y="62" type="curve" smooth="yes"/>
      <point x="244" y="62"/>
      <point x="241" y="59"/>
      <point x="241" y="56" type="curve" smooth="yes"/>
      <point x="241" y="53"/>
      <point x="244" y="50"/>
      <point x="247" y="50" type="curve" smooth="yes"/>
      <point x="250" y="50"/>
      <point x="253" y="53"/>
      <point x="253" y="56" type="curve" smooth="yes"/>
      <point x="253" y="59"/>
      <point x="250" y="62"/>
    </contour>
    <contour>
      <point x="198" y="-36" type="curve" smooth="yes"/>
      <point x="194" y="-36"/>
      <point x="192" y="-39"/>
      <point x="192" y="-42" type="curve" smooth="yes"/>
      <point x="192" y="-46"/>
      <point x="194" y="-48"/>
      <point x="198" y="-48" type="curve" smooth="yes"/>
      <point x="201" y="-48"/>
      <point x="204" y="-46"/>
      <point x="204" y="-42" type="curve" smooth="yes"/>
      <point x="204" y="-39"/>
      <point x="201" y="-36"/>
    </contour>
    <contour>
      <point x="198" y="62" type="curve" smooth="yes"/>
      <point x="194" y="62"/>
      <point x="192" y="59"/>
      <point x="192" y="56" type="curve" smooth="yes"/>
      <point x="192" y="53"/>
      <point x="194" y="50"/>
      <point x="198" y="50" type="curve" smooth="yes"/>
      <point x="201" y="50"/>
      <point x="204" y="53"/>
      <point x="204" y="56" type="curve" smooth="yes"/>
      <point x="204" y="59"/>
      <point x="201" y="62"/>
    </contour>
    <contour>
      <point x="198" y="111" type="curve" smooth="yes"/>
      <point x="194" y="111"/>
      <point x="192" y="108"/>
      <point x="192" y="105" type="curve" smooth="yes"/>
      <point x="192" y="102"/>
      <point x="194" y="99"/>
      <point x="198" y="99" type="curve" smooth="yes"/>
      <point x="201" y="99"/>
      <point x="204" y="102"/>
      <point x="204" y="105" type="curve" smooth="yes"/>
      <point x="204" y="108"/>
      <point x="201" y="111"/>
    </contour>
    <contour>
      <point x="148" y="-36" type="curve" smooth="yes"/>
      <point x="145" y="-36"/>
      <point x="142" y="-39"/>
      <point x="142" y="-42" type="curve" smooth="yes"/>
      <point x="142" y="-46"/>
      <point x="145" y="-48"/>
      <point x="148" y="-48" type="curve" smooth="yes"/>
      <point x="152" y="-48"/>
      <point x="155" y="-46"/>
      <point x="155" y="-42" type="curve" smooth="yes"/>
      <point x="155" y="-39"/>
      <point x="152" y="-36"/>
    </contour>
    <contour>
      <point x="99" y="-36" type="curve" smooth="yes"/>
      <point x="96" y="-36"/>
      <point x="93" y="-39"/>
      <point x="93" y="-42" type="curve" smooth="yes"/>
      <point x="93" y="-46"/>
      <point x="96" y="-48"/>
      <point x="99" y="-48" type="curve" smooth="yes"/>
      <point x="102" y="-48"/>
      <point x="105" y="-46"/>
      <point x="105" y="-42" type="curve" smooth="yes"/>
      <point x="105" y="-39"/>
      <point x="102" y="-36"/>
    </contour>
    <contour>
      <point x="50" y="-36" type="curve" smooth="yes"/>
      <point x="46" y="-36"/>
      <point x="44" y="-39"/>
      <point x="44" y="-42" type="curve" smooth="yes"/>
      <point x="44" y="-46"/>
      <point x="46" y="-48"/>
      <point x="50" y="-48" type="curve" smooth="yes"/>
      <point x="53" y="-48"/>
      <point x="56" y="-46"/>
      <point x="56" y="-42" type="curve" smooth="yes"/>
      <point x="56" y="-39"/>
      <point x="53" y="-36"/>
    </contour>
    <contour>
      <point x="50" y="13" type="curve" smooth="yes"/>
      <point x="46" y="13"/>
      <point x="44" y="10"/>
      <point x="44" y="7" type="curve" smooth="yes"/>
      <point x="44" y="4"/>
      <point x="46" y="1"/>
      <point x="50" y="1" type="curve" smooth="yes"/>
      <point x="53" y="1"/>
      <point x="56" y="4"/>
      <point x="56" y="7" type="curve" smooth="yes"/>
      <point x="56" y="10"/>
      <point x="53" y="13"/>
    </contour>
    <contour>
      <point x="50" y="62" type="curve" smooth="yes"/>
      <point x="46" y="62"/>
      <point x="44" y="59"/>
      <point x="44" y="56" type="curve" smooth="yes"/>
      <point x="44" y="53"/>
      <point x="46" y="50"/>
      <point x="50" y="50" type="curve" smooth="yes"/>
      <point x="53" y="50"/>
      <point x="56" y="53"/>
      <point x="56" y="56" type="curve" smooth="yes"/>
      <point x="56" y="59"/>
      <point x="53" y="62"/>
    </contour>
    <contour>
      <point x="50" y="111" type="curve" smooth="yes"/>
      <point x="46" y="111"/>
      <point x="44" y="108"/>
      <point x="44" y="105" type="curve" smooth="yes"/>
      <point x="44" y="102"/>
      <point x="46" y="99"/>
      <point x="50" y="99" type="curve" smooth="yes"/>
      <point x="53" y="99"/>
      <point x="56" y="102"/>
      <point x="56" y="105" type="curve" smooth="yes"/>
      <point x="56" y="108"/>
      <point x="53" y="111"/>
    </contour>
    <contour>
      <point x="50" y="160" type="curve" smooth="yes"/>
      <point x="46" y="160"/>
      <point x="44" y="158"/>
      <point x="44" y="154" type="curve" smooth="yes"/>
      <point x="44" y="151"/>
      <point x="46" y="148"/>
      <point x="50" y="148" type="curve" smooth="yes"/>
      <point x="53" y="148"/>
      <point x="56" y="151"/>
      <point x="56" y="154" type="curve" smooth="yes"/>
      <point x="56" y="158"/>
      <point x="53" y="160"/>
    </contour>
    <contour>
      <point x="50" y="209" type="curve" smooth="yes"/>
      <point x="46" y="209"/>
      <point x="44" y="207"/>
      <point x="44" y="203" type="curve" smooth="yes"/>
      <point x="44" y="200"/>
      <point x="46" y="197"/>
      <point x="50" y="197" type="curve" smooth="yes"/>
      <point x="53" y="197"/>
      <point x="56" y="200"/>
      <point x="56" y="203" type="curve" smooth="yes"/>
      <point x="56" y="207"/>
      <point x="53" y="209"/>
    </contour>
    <contour>
      <point x="50" y="258" type="curve" smooth="yes"/>
      <point x="46" y="258"/>
      <point x="44" y="256"/>
      <point x="44" y="252" type="curve" smooth="yes"/>
      <point x="44" y="249"/>
      <point x="46" y="246"/>
      <point x="50" y="246" type="curve" smooth="yes"/>
      <point x="53" y="246"/>
      <point x="56" y="249"/>
      <point x="56" y="252" type="curve" smooth="yes"/>
      <point x="56" y="256"/>
      <point x="53" y="258"/>
    </contour>
  </outline>
</glyph>
<glyph name="b.2.3" format="1">
  <advance width="444"/>
  <outline>
    <contour>
      <point x="448" y="549" type="curve" smooth="yes"/>
      <point x="447" y="551"/>
      <point x="445" y="552"/>
      <point x="443" y="551" type="curve"/>
      <point x="296" y="486" type="line"/>
      <point x="275" y="499"/>
      <point x="247" y="507"/>
      <point x="213" y="507" type="curve"/>
      <point x="108" y="506" type="line"/>
      <point x="108" y="0" type="line"/>
      <point x="137" y="-2"/>
      <point x="174" y="-2"/>
      <point x="200" y="-2" type="curve" smooth="yes"/>
      <point x="322" y="-2"/>
      <point x="389" y="38"/>
      <point x="389" y="130" type="curve" smooth="yes"/>
      <point x="389" y="204"/>
      <point x="343" y="246"/>
      <point x="270" y="256" type="curve"/>
      <point x="319" y="276"/>
      <point x="349" y="318"/>
      <point x="349" y="383" type="curve" smooth="yes"/>
      <point x="349" y="412"/>
      <point x="342" y="437"/>
      <point x="328" y="457" type="curve"/>
      <point x="306" y="448" type="line"/>
      <point x="320" y="430"/>
      <point x="327" y="407"/>
      <point x="327" y="382" type="curve" smooth="yes"/>
      <point x="327" y="318"/>
      <point x="294" y="274"/>
      <point x="234" y="263" type="curve"/>
      <point x="128" y="265" type="line"/>
      <point x="128" y="487" type="line"/>
      <point x="216" y="487" type="line"/>
      <point x="237" y="487"/>
      <point x="256" y="483"/>
      <point x="272" y="475" type="curve"/>
      <point x="153" y="423" type="line"/>
      <point x="153" y="414" type="line"/>
      <point x="446" y="543" type="line"/>
      <point x="448" y="544"/>
      <point x="449" y="547"/>
    </contour>
    <contour>
      <point x="241" y="244" type="line"/>
      <point x="323" y="237"/>
      <point x="368" y="197"/>
      <point x="368" y="130" type="curve" smooth="yes"/>
      <point x="368" y="54"/>
      <point x="307" y="16"/>
      <point x="197" y="16" type="curve" smooth="yes"/>
      <point x="174" y="16"/>
      <point x="150" y="17"/>
      <point x="128" y="20" type="curve"/>
      <point x="128" y="243" type="line"/>
    </contour>
    <contour>
      <point x="-3" y="349" type="curve" smooth="yes"/>
      <point x="-3" y="347"/>
      <point x="-1" y="346"/>
      <point x="0" y="346" type="curve" smooth="yes"/>
      <point x="1" y="346"/>
      <point x="2" y="347"/>
      <point x="2" y="347" type="curve"/>
      <point x="83" y="383" type="line"/>
      <point x="83" y="392" type="line"/>
      <point x="-1" y="354" type="line"/>
      <point x="-3" y="353"/>
      <point x="-4" y="351"/>
    </contour>
    <contour>
      <point x="444" y="-36" type="curve" smooth="yes"/>
      <point x="441" y="-36"/>
      <point x="438" y="-39"/>
      <point x="438" y="-42" type="curve" smooth="yes"/>
      <point x="438" y="-46"/>
      <point x="441" y="-48"/>
      <point x="444" y="-48" type="curve" smooth="yes"/>
      <point x="448" y="-48"/>
      <point x="451" y="-46"/>
      <point x="451" y="-42" type="curve" smooth="yes"/>
      <point x="451" y="-39"/>
      <point x="448" y="-36"/>
    </contour>
    <contour>
      <point x="444" y="13" type="curve" smooth="yes"/>
      <point x="441" y="13"/>
      <point x="438" y="10"/>
      <point x="438" y="7" type="curve" smooth="yes"/>
      <point x="438" y="4"/>
      <point x="441" y="1"/>
      <point x="444" y="1" type="curve" smooth="yes"/>
      <point x="448" y="1"/>
      <point x="451" y="4"/>
      <point x="451" y="7" type="curve" smooth="yes"/>
      <point x="451" y="10"/>
      <point x="448" y="13"/>
    </contour>
    <contour>
      <point x="444" y="62" type="curve" smooth="yes"/>
      <point x="441" y="62"/>
      <point x="438" y="59"/>
      <point x="438" y="56" type="curve" smooth="yes"/>
      <point x="438" y="53"/>
      <point x="441" y="50"/>
      <point x="444" y="50" type="curve" smooth="yes"/>
      <point x="448" y="50"/>
      <point x="451" y="53"/>
      <point x="451" y="56" type="curve" smooth="yes"/>
      <point x="451" y="59"/>
      <point x="448" y="62"/>
    </contour>
    <contour>
      <point x="444" y="111" type="curve" smooth="yes"/>
      <point x="441" y="111"/>
      <point x="438" y="108"/>
      <point x="438" y="105" type="curve" smooth="yes"/>
      <point x="438" y="102"/>
      <point x="441" y="99"/>
      <point x="444" y="99" type="curve" smooth="yes"/>
      <point x="448" y="99"/>
      <point x="451" y="102"/>
      <point x="451" y="105" type="curve" smooth="yes"/>
      <point x="451" y="108"/>
      <point x="448" y="111"/>
    </contour>
    <contour>
      <point x="444" y="160" type="curve" smooth="yes"/>
      <point x="441" y="160"/>
      <point x="438" y="158"/>
      <point x="438" y="154" type="curve" smooth="yes"/>
      <point x="438" y="151"/>
      <point x="441" y="148"/>
      <point x="444" y="148" type="curve" smooth="yes"/>
      <point x="448" y="148"/>
      <point x="451" y="151"/>
      <point x="451" y="154" type="curve" smooth="yes"/>
      <point x="451" y="158"/>
      <point x="448" y="160"/>
    </contour>
    <contour>
      <point x="444" y="209" type="curve" smooth="yes"/>
      <point x="441" y="209"/>
      <point x="438" y="207"/>
      <point x="438" y="203" type="curve" smooth="yes"/>
      <point x="438" y="200"/>
      <point x="441" y="197"/>
      <point x="444" y="197" type="curve" smooth="yes"/>
      <point x="448" y="197"/>
      <point x="451" y="200"/>
      <point x="451" y="203" type="curve" smooth="yes"/>
      <point x="451" y="207"/>
      <point x="448" y="209"/>
    </contour>
    <contour>
      <point x="444" y="258" type="curve" smooth="yes"/>
      <point x="441" y="258"/>
      <point x="438" y="256"/>
      <point x="438" y="252" type="curve" smooth="yes"/>
      <point x="438" y="249"/>
      <point x="441" y="246"/>
      <point x="444" y="246" type="curve" smooth="yes"/>
      <point x="448" y="246"/>
      <point x="451" y="249"/>
      <point x="451" y="252" type="curve" smooth="yes"/>
      <point x="451" y="256"/>
      <point x="448" y="258"/>
    </contour>
    <contour>
      <point x="444" y="308" type="curve" smooth="yes"/>
      <point x="441" y="308"/>
      <point x="438" y="305"/>
      <point x="438" y="301" type="curve" smooth="yes"/>
      <point x="438" y="298"/>
      <point x="441" y="295"/>
      <point x="444" y="295" type="curve" smooth="yes"/>
      <point x="448" y="295"/>
      <point x="451" y="298"/>
      <point x="451" y="301" type="curve" smooth="yes"/>
      <point x="451" y="305"/>
      <point x="448" y="308"/>
    </contour>
    <contour>
      <point x="444" y="357" type="curve" smooth="yes"/>
      <point x="441" y="357"/>
      <point x="438" y="354"/>
      <point x="438" y="351" type="curve" smooth="yes"/>
      <point x="438" y="347"/>
      <point x="441" y="344"/>
      <point x="444" y="344" type="curve" smooth="yes"/>
      <point x="448" y="344"/>
      <point x="451" y="347"/>
      <point x="451" y="351" type="curve" smooth="yes"/>
      <point x="451" y="354"/>
      <point x="448" y="357"/>
    </contour>
    <contour>
      <point x="444" y="406" type="curve" smooth="yes"/>
      <point x="441" y="406"/>
      <point x="438" y="403"/>
      <point x="438" y="400" type="curve" smooth="yes"/>
      <point x="438" y="396"/>
      <point x="441" y="393"/>
      <point x="444" y="393" type="curve" smooth="yes"/>
      <point x="448" y="393"/>
      <point x="451" y="396"/>
      <point x="451" y="400" type="curve" smooth="yes"/>
      <point x="451" y="403"/>
      <point x="448" y="406"/>
    </contour>
    <contour>
      <point x="444" y="455" type="curve" smooth="yes"/>
      <point x="441" y="455"/>
      <point x="438" y="452"/>
      <point x="438" y="449" type="curve" smooth="yes"/>
      <point x="438" y="445"/>
      <point x="441" y="443"/>
      <point x="444" y="443" type="curve" smooth="yes"/>
      <point x="448" y="443"/>
      <point x="451" y="445"/>
      <point x="451" y="449" type="curve" smooth="yes"/>
      <point x="451" y="452"/>
      <point x="448" y="455"/>
    </contour>
    <contour>
      <point x="444" y="504" type="curve" smooth="yes"/>
      <point x="441" y="504"/>
      <point x="438" y="501"/>
      <point x="438" y="498" type="curve" smooth="yes"/>
      <point x="438" y="494"/>
      <point x="441" y="492"/>
      <point x="444" y="492" type="curve" smooth="yes"/>
      <point x="448" y="492"/>
      <point x="451" y="494"/>
      <point x="451" y="498" type="curve" smooth="yes"/>
      <point x="451" y="501"/>
      <point x="448" y="504"/>
    </contour>
    <contour>
      <point x="395" y="-36" type="curve" smooth="yes"/>
      <point x="392" y="-36"/>
      <point x="389" y="-39"/>
      <point x="389" y="-42" type="curve" smooth="yes"/>
      <point x="389" y="-46"/>
      <point x="392" y="-48"/>
      <point x="395" y="-48" type="curve" smooth="yes"/>
      <point x="398" y="-48"/>
      <point x="401" y="-46"/>
      <point x="401" y="-42" type="curve" smooth="yes"/>
      <point x="401" y="-39"/>
      <point x="398" y="-36"/>
    </contour>
    <contour>
      <point x="395" y="13" type="curve" smooth="yes"/>
      <point x="392" y="13"/>
      <point x="389" y="10"/>
      <point x="389" y="7" type="curve" smooth="yes"/>
      <point x="389" y="4"/>
      <point x="392" y="1"/>
      <point x="395" y="1" type="curve" smooth="yes"/>
      <point x="398" y="1"/>
      <point x="401" y="4"/>
      <point x="401" y="7" type="curve" smooth="yes"/>
      <point x="401" y="10"/>
      <point x="398" y="13"/>
    </contour>
    <contour>
      <point x="395" y="258" type="curve" smooth="yes"/>
      <point x="392" y="258"/>
      <point x="389" y="256"/>
      <point x="389" y="252" type="curve" smooth="yes"/>
      <point x="389" y="249"/>
      <point x="392" y="246"/>
      <point x="395" y="246" type="curve" smooth="yes"/>
      <point x="398" y="246"/>
      <point x="401" y="249"/>
      <point x="401" y="252" type="curve" smooth="yes"/>
      <point x="401" y="256"/>
      <point x="398" y="258"/>
    </contour>
    <contour>
      <point x="395" y="308" type="curve" smooth="yes"/>
      <point x="392" y="308"/>
      <point x="389" y="305"/>
      <point x="389" y="301" type="curve" smooth="yes"/>
      <point x="389" y="298"/>
      <point x="392" y="295"/>
      <point x="395" y="295" type="curve" smooth="yes"/>
      <point x="398" y="295"/>
      <point x="401" y="298"/>
      <point x="401" y="301" type="curve" smooth="yes"/>
      <point x="401" y="305"/>
      <point x="398" y="308"/>
    </contour>
    <contour>
      <point x="395" y="357" type="curve" smooth="yes"/>
      <point x="392" y="357"/>
      <point x="389" y="354"/>
      <point x="389" y="351" type="curve" smooth="yes"/>
      <point x="389" y="347"/>
      <point x="392" y="344"/>
      <point x="395" y="344" type="curve" smooth="yes"/>
      <point x="398" y="344"/>
      <point x="401" y="347"/>
      <point x="401" y="351" type="curve" smooth="yes"/>
      <point x="401" y="354"/>
      <point x="398" y="357"/>
    </contour>
    <contour>
      <point x="395" y="406" type="curve" smooth="yes"/>
      <point x="392" y="406"/>
      <point x="389" y="403"/>
      <point x="389" y="400" type="curve" smooth="yes"/>
      <point x="389" y="396"/>
      <point x="392" y="393"/>
      <point x="395" y="393" type="curve" smooth="yes"/>
      <point x="398" y="393"/>
      <point x="401" y="396"/>
      <point x="401" y="400" type="curve" smooth="yes"/>
      <point x="401" y="403"/>
      <point x="398" y="406"/>
    </contour>
    <contour>
      <point x="395" y="455" type="curve" smooth="yes"/>
      <point x="392" y="455"/>
      <point x="389" y="452"/>
      <point x="389" y="449" type="curve" smooth="yes"/>
      <point x="389" y="445"/>
      <point x="392" y="443"/>
      <point x="395" y="443" type="curve" smooth="yes"/>
      <point x="398" y="443"/>
      <point x="401" y="445"/>
      <point x="401" y="449" type="curve" smooth="yes"/>
      <point x="401" y="452"/>
      <point x="398" y="455"/>
    </contour>
    <contour>
      <point x="346" y="-36" type="curve" smooth="yes"/>
      <point x="342" y="-36"/>
      <point x="340" y="-39"/>
      <point x="340" y="-42" type="curve" smooth="yes"/>
      <point x="340" y="-46"/>
      <point x="342" y="-48"/>
      <point x="346" y="-48" type="curve" smooth="yes"/>
      <point x="349" y="-48"/>
      <point x="352" y="-46"/>
      <point x="352" y="-42" type="curve" smooth="yes"/>
      <point x="352" y="-39"/>
      <point x="349" y="-36"/>
    </contour>
    <contour>
      <point x="296" y="-36" type="curve" smooth="yes"/>
      <point x="293" y="-36"/>
      <point x="290" y="-39"/>
      <point x="290" y="-42" type="curve" smooth="yes"/>
      <point x="290" y="-46"/>
      <point x="293" y="-48"/>
      <point x="296" y="-48" type="curve" smooth="yes"/>
      <point x="300" y="-48"/>
      <point x="303" y="-46"/>
      <point x="303" y="-42" type="curve" smooth="yes"/>
      <point x="303" y="-39"/>
      <point x="300" y="-36"/>
    </contour>
    <contour>
      <point x="296" y="111" type="curve" smooth="yes"/>
      <point x="293" y="111"/>
      <point x="290" y="108"/>
      <point x="290" y="105" type="curve" smooth="yes"/>
      <point x="290" y="102"/>
      <point x="293" y="99"/>
      <point x="296" y="99" type="curve" smooth="yes"/>
      <point x="300" y="99"/>
      <point x="303" y="102"/>
      <point x="303" y="105" type="curve" smooth="yes"/>
      <point x="303" y="108"/>
      <point x="300" y="111"/>
    </contour>
    <contour>
      <point x="296" y="160" type="curve" smooth="yes"/>
      <point x="293" y="160"/>
      <point x="290" y="158"/>
      <point x="290" y="154" type="curve" smooth="yes"/>
      <point x="290" y="151"/>
      <point x="293" y="148"/>
      <point x="296" y="148" type="curve" smooth="yes"/>
      <point x="300" y="148"/>
      <point x="303" y="151"/>
      <point x="303" y="154" type="curve" smooth="yes"/>
      <point x="303" y="158"/>
      <point x="300" y="160"/>
    </contour>
    <contour>
      <point x="296" y="357" type="curve" smooth="yes"/>
      <point x="293" y="357"/>
      <point x="290" y="354"/>
      <point x="290" y="351" type="curve" smooth="yes"/>
      <point x="290" y="347"/>
      <point x="293" y="344"/>
      <point x="296" y="344" type="curve" smooth="yes"/>
      <point x="300" y="344"/>
      <point x="303" y="347"/>
      <point x="303" y="351" type="curve" smooth="yes"/>
      <point x="303" y="354"/>
      <point x="300" y="357"/>
    </contour>
    <contour>
      <point x="296" y="406" type="curve" smooth="yes"/>
      <point x="293" y="406"/>
      <point x="290" y="403"/>
      <point x="290" y="400" type="curve" smooth="yes"/>
      <point x="290" y="396"/>
      <point x="293" y="393"/>
      <point x="296" y="393" type="curve" smooth="yes"/>
      <point x="300" y="393"/>
      <point x="303" y="396"/>
      <point x="303" y="400" type="curve" smooth="yes"/>
      <point x="303" y="403"/>
      <point x="300" y="406"/>
    </contour>
    <contour>
      <point x="247" y="-36" type="curve" smooth="yes"/>
      <point x="244" y="-36"/>
      <point x="241" y="-39"/>
      <point x="241" y="-42" type="curve" smooth="yes"/>
      <point x="241" y="-46"/>
      <point x="244" y="-48"/>
      <point x="247" y="-48" type="curve" smooth="yes"/>
      <point x="250" y="-48"/>
      <point x="253" y="-46"/>
      <point x="253" y="-42" type="curve" smooth="yes"/>
      <point x="253" y="-39"/>
      <point x="250" y="-36"/>
    </contour>
    <contour>
      <point x="247" y="62" type="curve" smooth="yes"/>
      <point x="244" y="62"/>
      <point x="241" y="59"/>
      <point x="241" y="56" type="curve" smooth="yes"/>
      <point x="241" y="53"/>
      <point x="244" y="50"/>
      <point x="247" y="50" type="curve" smooth="yes"/>
      <point x="250" y="50"/>
      <point x="253" y="53"/>
      <point x="253" y="56" type="curve" smooth="yes"/>
      <point x="253" y="59"/>
      <point x="250" y="62"/>
    </contour>
    <contour>
      <point x="247" y="111" type="curve" smooth="yes"/>
      <point x="244" y="111"/>
      <point x="241" y="108"/>
      <point x="241" y="105" type="curve" smooth="yes"/>
      <point x="241" y="102"/>
      <point x="244" y="99"/>
      <point x="247" y="99" type="curve" smooth="yes"/>
      <point x="250" y="99"/>
      <point x="253" y="102"/>
      <point x="253" y="105" type="curve" smooth="yes"/>
      <point x="253" y="108"/>
      <point x="250" y="111"/>
    </contour>
    <contour>
      <point x="247" y="160" type="curve" smooth="yes"/>
      <point x="244" y="160"/>
      <point x="241" y="158"/>
      <point x="241" y="154" type="curve" smooth="yes"/>
      <point x="241" y="151"/>
      <point x="244" y="148"/>
      <point x="247" y="148" type="curve" smooth="yes"/>
      <point x="250" y="148"/>
      <point x="253" y="151"/>
      <point x="253" y="154" type="curve" smooth="yes"/>
      <point x="253" y="158"/>
      <point x="250" y="160"/>
    </contour>
    <contour>
      <point x="247" y="209" type="curve" smooth="yes"/>
      <point x="244" y="209"/>
      <point x="241" y="207"/>
      <point x="241" y="203" type="curve" smooth="yes"/>
      <point x="241" y="200"/>
      <point x="244" y="197"/>
      <point x="247" y="197" type="curve" smooth="yes"/>
      <point x="250" y="197"/>
      <point x="253" y="200"/>
      <point x="253" y="203" type="curve" smooth="yes"/>
      <point x="253" y="207"/>
      <point x="250" y="209"/>
    </contour>
    <contour>
      <point x="247" y="308" type="curve" smooth="yes"/>
      <point x="244" y="308"/>
      <point x="241" y="305"/>
      <point x="241" y="301" type="curve" smooth="yes"/>
      <point x="241" y="298"/>
      <point x="244" y="295"/>
      <point x="247" y="295" type="curve" smooth="yes"/>
      <point x="250" y="295"/>
      <point x="253" y="298"/>
      <point x="253" y="301" type="curve" smooth="yes"/>
      <point x="253" y="305"/>
      <point x="250" y="308"/>
    </contour>
    <contour>
      <point x="247" y="357" type="curve" smooth="yes"/>
      <point x="244" y="357"/>
      <point x="241" y="354"/>
      <point x="241" y="351" type="curve" smooth="yes"/>
      <point x="241" y="347"/>
      <point x="244" y="344"/>
      <point x="247" y="344" type="curve" smooth="yes"/>
      <point x="250" y="344"/>
      <point x="253" y="347"/>
      <point x="253" y="351" type="curve" smooth="yes"/>
      <point x="253" y="354"/>
      <point x="250" y="357"/>
    </contour>
    <contour>
      <point x="247" y="406" type="curve" smooth="yes"/>
      <point x="244" y="406"/>
      <point x="241" y="403"/>
      <point x="241" y="400" type="curve" smooth="yes"/>
      <point x="241" y="396"/>
      <point x="244" y="393"/>
      <point x="247" y="393" type="curve" smooth="yes"/>
      <point x="250" y="393"/>
      <point x="253" y="396"/>
      <point x="253" y="400" type="curve" smooth="yes"/>
      <point x="253" y="403"/>
      <point x="250" y="406"/>
    </contour>
    <contour>
      <point x="198" y="-36" type="curve" smooth="yes"/>
      <point x="194" y="-36"/>
      <point x="192" y="-39"/>
      <point x="192" y="-42" type="curve" smooth="yes"/>
      <point x="192" y="-46"/>
      <point x="194" y="-48"/>
      <point x="198" y="-48" type="curve" smooth="yes"/>
      <point x="201" y="-48"/>
      <point x="204" y="-46"/>
      <point x="204" y="-42" type="curve" smooth="yes"/>
      <point x="204" y="-39"/>
      <point x="201" y="-36"/>
    </contour>
    <contour>
      <point x="198" y="62" type="curve" smooth="yes"/>
      <point x="194" y="62"/>
      <point x="192" y="59"/>
      <point x="192" y="56" type="curve" smooth="yes"/>
      <point x="192" y="53"/>
      <point x="194" y="50"/>
      <point x="198" y="50" type="curve" smooth="yes"/>
      <point x="201" y="50"/>
      <point x="204" y="53"/>
      <point x="204" y="56" type="curve" smooth="yes"/>
      <point x="204" y="59"/>
      <point x="201" y="62"/>
    </contour>
    <contour>
      <point x="198" y="111" type="curve" smooth="yes"/>
      <point x="194" y="111"/>
      <point x="192" y="108"/>
      <point x="192" y="105" type="curve" smooth="yes"/>
      <point x="192" y="102"/>
      <point x="194" y="99"/>
      <point x="198" y="99" type="curve" smooth="yes"/>
      <point x="201" y="99"/>
      <point x="204" y="102"/>
      <point x="204" y="105" type="curve" smooth="yes"/>
      <point x="204" y="108"/>
      <point x="201" y="111"/>
    </contour>
    <contour>
      <point x="198" y="160" type="curve" smooth="yes"/>
      <point x="194" y="160"/>
      <point x="192" y="158"/>
      <point x="192" y="154" type="curve" smooth="yes"/>
      <point x="192" y="151"/>
      <point x="194" y="148"/>
      <point x="198" y="148" type="curve" smooth="yes"/>
      <point x="201" y="148"/>
      <point x="204" y="151"/>
      <point x="204" y="154" type="curve" smooth="yes"/>
      <point x="204" y="158"/>
      <point x="201" y="160"/>
    </contour>
    <contour>
      <point x="198" y="209" type="curve" smooth="yes"/>
      <point x="194" y="209"/>
      <point x="192" y="207"/>
      <point x="192" y="203" type="curve" smooth="yes"/>
      <point x="192" y="200"/>
      <point x="194" y="197"/>
      <point x="198" y="197" type="curve" smooth="yes"/>
      <point x="201" y="197"/>
      <point x="204" y="200"/>
      <point x="204" y="203" type="curve" smooth="yes"/>
      <point x="204" y="207"/>
      <point x="201" y="209"/>
    </contour>
    <contour>
      <point x="198" y="308" type="curve" smooth="yes"/>
      <point x="194" y="308"/>
      <point x="192" y="305"/>
      <point x="192" y="301" type="curve" smooth="yes"/>
      <point x="192" y="298"/>
      <point x="194" y="295"/>
      <point x="198" y="295" type="curve" smooth="yes"/>
      <point x="201" y="295"/>
      <point x="204" y="298"/>
      <point x="204" y="301" type="curve" smooth="yes"/>
      <point x="204" y="305"/>
      <point x="201" y="308"/>
    </contour>
    <contour>
      <point x="198" y="357" type="curve" smooth="yes"/>
      <point x="194" y="357"/>
      <point x="192" y="354"/>
      <point x="192" y="351" type="curve" smooth="yes"/>
      <point x="192" y="347"/>
      <point x="194" y="344"/>
      <point x="198" y="344" type="curve" smooth="yes"/>
      <point x="201" y="344"/>
      <point x="204" y="347"/>
      <point x="204" y="351" type="curve" smooth="yes"/>
      <point x="204" y="354"/>
      <point x="201" y="357"/>
    </contour>
    <contour>
      <point x="198" y="406" type="curve" smooth="yes"/>
      <point x="194" y="406"/>
      <point x="192" y="403"/>
      <point x="192" y="400" type="curve" smooth="yes"/>
      <point x="192" y="396"/>
      <point x="194" y="393"/>
      <point x="198" y="393" type="curve" smooth="yes"/>
      <point x="201" y="393"/>
      <point x="204" y="396"/>
      <point x="204" y="400" type="curve" smooth="yes"/>
      <point x="204" y="403"/>
      <point x="201" y="406"/>
    </contour>
    <contour>
      <point x="148" y="-36" type="curve" smooth="yes"/>
      <point x="145" y="-36"/>
      <point x="142" y="-39"/>
      <point x="142" y="-42" type="curve" smooth="yes"/>
      <point x="142" y="-46"/>
      <point x="145" y="-48"/>
      <point x="148" y="-48" type="curve" smooth="yes"/>
      <point x="152" y="-48"/>
      <point x="155" y="-46"/>
      <point x="155" y="-42" type="curve" smooth="yes"/>
      <point x="155" y="-39"/>
      <point x="152" y="-36"/>
    </contour>
    <contour>
      <point x="99" y="-36" type="curve" smooth="yes"/>
      <point x="96" y="-36"/>
      <point x="93" y="-39"/>
      <point x="93" y="-42" type="curve" smooth="yes"/>
      <point x="93" y="-46"/>
      <point x="96" y="-48"/>
      <point x="99" y="-48" type="curve" smooth="yes"/>
      <point x="102" y="-48"/>
      <point x="105" y="-46"/>
      <point x="105" y="-42" type="curve" smooth="yes"/>
      <point x="105" y="-39"/>
      <point x="102" y="-36"/>
    </contour>
    <contour>
      <point x="50" y="-36" type="curve" smooth="yes"/>
      <point x="46" y="-36"/>
      <point x="44" y="-39"/>
      <point x="44" y="-42" type="curve" smooth="yes"/>
      <point x="44" y="-46"/>
      <point x="46" y="-48"/>
      <point x="50" y="-48" type="curve" smooth="yes"/>
      <point x="53" y="-48"/>
      <point x="56" y="-46"/>
      <point x="56" y="-42" type="curve" smooth="yes"/>
      <point x="56" y="-39"/>
      <point x="53" y="-36"/>
    </contour>
    <contour>
      <point x="50" y="13" type="curve" smooth="yes"/>
      <point x="46" y="13"/>
      <point x="44" y="10"/>
      <point x="44" y="7" type="curve" smooth="yes"/>
      <point x="44" y="4"/>
      <point x="46" y="1"/>
      <point x="50" y="1" type="curve" smooth="yes"/>
      <point x="53" y="1"/>
      <point x="56" y="4"/>
      <point x="56" y="7" type="curve" smooth="yes"/>
      <point x="56" y="10"/>
      <point x="53" y="13"/>
    </contour>
    <contour>
      <point x="50" y="62" type="curve" smooth="yes"/>
      <point x="46" y="62"/>
      <point x="44" y="59"/>
      <point x="44" y="56" type="curve" smooth="yes"/>
      <point x="44" y="53"/>
      <point x="46" y="50"/>
      <point x="50" y="50" type="curve" smooth="yes"/>
      <point x="53" y="50"/>
      <point x="56" y="53"/>
      <point x="56" y="56" type="curve" smooth="yes"/>
      <point x="56" y="59"/>
      <point x="53" y="62"/>
    </contour>
    <contour>
      <point x="50" y="111" type="curve" smooth="yes"/>
      <point x="46" y="111"/>
      <point x="44" y="108"/>
      <point x="44" y="105" type="curve" smooth="yes"/>
      <point x="44" y="102"/>
      <point x="46" y="99"/>
      <point x="50" y="99" type="curve" smooth="yes"/>
      <point x="53" y="99"/>
      <point x="56" y="102"/>
      <point x="56" y="105" type="curve" smooth="yes"/>
      <point x="56" y="108"/>
      <point x="53" y="111"/>
    </contour>
    <contour>
      <point x="50" y="160" type="curve" smooth="yes"/>
      <point x="46" y="160"/>
      <point x="44" y="158"/>
      <point x="44" y="154" type="curve" smooth="yes"/>
      <point x="44" y="151"/>
      <point x="46" y="148"/>
      <point x="50" y="148" type="curve" smooth="yes"/>
      <point x="53" y="148"/>
      <point x="56" y="151"/>
      <point x="56" y="154" type="curve" smooth="yes"/>
      <point x="56" y="158"/>
      <point x="53" y="160"/>
    </contour>
    <contour>
      <point x="50" y="209" type="curve" smooth="yes"/>
      <point x="46" y="209"/>
      <point x="44" y="207"/>
      <point x="44" y="203" type="curve" smooth="yes"/>
      <point x="44" y="200"/>
      <point x="46" y="197"/>
      <point x="50" y="197" type="curve" smooth="yes"/>
      <point x="53" y="197"/>
      <point x="56" y="200"/>
      <point x="56" y="203" type="curve" smooth="yes"/>
      <point x="56" y="207"/>
      <point x="53" y="209"/>
    </contour>
    <contour>
      <point x="50" y="258" type="curve" smooth="yes"/>
      <point x="46" y="258"/>
      <point x="44" y="256"/>
      <point x="44" y="252" type="curve" smooth="yes"/>
      <point x="44" y="249"/>
      <point x="46" y="246"/>
      <point x="50" y="246" type="curve" smooth="yes"/>
      <point x="53" y="246"/>
      <point x="56" y="249"/>
      <point x="56" y="252" type="curve" smooth="yes"/>
      <point x="56" y="256"/>
      <point x="53" y="258"/>
    </contour>
    <contour>
      <point x="50" y="308" type="curve" smooth="yes"/>
      <point x="46" y="308"/>
      <point x="44" y="305"/>
      <point x="44" y="301" type="curve" smooth="yes"/>
      <point x="44" y="298"/>
      <point x="46" y="295"/>
      <point x="50" y="295" type="curve" smooth="yes"/>
      <point x="53" y="295"/>
      <point x="56" y="298"/>
      <point x="56" y="301" type="curve" smooth="yes"/>
      <point x="56" y="305"/>
      <point x="53" y="308"/>
    </contour>
  </outline>
</glyph>
<glyph name="b.3.1" format="1">
  <advance width="444"/>
  <outline>
    <contour>
      <point x="448" y="157" type="curve" smooth="yes"/>
      <point x="448" y="157"/>
      <point x="447" y="157"/>
      <point x="447" y="157" type="curve"/>
      <point x="309" y="280" type="line"/>
      <point x="335" y="303"/>
      <point x="349" y="338"/>
      <point x="349" y="383" type="curve" smooth="yes"/>
      <point x="349" y="458"/>
      <point x="299" y="507"/>
      <point x="213" y="507" type="curve"/>
      <point x="108" y="506" type="line"/>
      <point x="108" y="0" type="line"/>
      <point x="137" y="-2"/>
      <point x="174" y="-2"/>
      <point x="200" y="-2" type="curve" smooth="yes"/>
      <point x="322" y="-2"/>
      <point x="389" y="38"/>
      <point x="389" y="130" type="curve" smooth="yes"/>
      <point x="389" y="138"/>
      <point x="389" y="145"/>
      <point x="388" y="152" type="curve"/>
      <point x="359" y="178" type="line"/>
      <point x="365" y="164"/>
      <point x="368" y="148"/>
      <point x="368" y="130" type="curve" smooth="yes"/>
      <point x="368" y="54"/>
      <point x="307" y="16"/>
      <point x="197" y="16" type="curve" smooth="yes"/>
      <point x="174" y="16"/>
      <point x="150" y="17"/>
      <point x="128" y="20" type="curve"/>
      <point x="128" y="243" type="line"/>
      <point x="283" y="245" type="line"/>
      <point x="262" y="264" type="line"/>
      <point x="128" y="265" type="line"/>
      <point x="128" y="487" type="line"/>
      <point x="216" y="487" type="line"/>
      <point x="284" y="487"/>
      <point x="327" y="443"/>
      <point x="327" y="382" type="curve" smooth="yes"/>
      <point x="327" y="345"/>
      <point x="316" y="314"/>
      <point x="294" y="293" type="curve"/>
      <point x="153" y="417" type="line"/>
      <point x="153" y="406" type="line"/>
      <point x="442" y="151" type="line"/>
      <point x="442" y="151"/>
      <point x="442" y="151"/>
      <point x="442" y="150" type="curve" smooth="yes"/>
      <point x="443" y="150"/>
      <point x="444" y="150"/>
      <point x="444" y="150" type="curve"/>
      <point x="444" y="150" type="line"/>
      <point x="444" y="150"/>
      <point x="444" y="150"/>
      <point x="444" y="150" type="curve"/>
      <point x="445" y="150"/>
      <point x="446" y="150"/>
      <point x="447" y="151" type="curve" smooth="yes"/>
      <point x="447" y="151"/>
      <point x="447" y="151"/>
      <point x="448" y="151" type="curve" smooth="yes"/>
      <point x="449" y="153"/>
      <point x="449" y="155"/>
    </contour>
    <contour>
      <point x="-3" y="550" type="curve" smooth="yes"/>
      <point x="-4" y="548"/>
      <point x="-4" y="545"/>
      <point x="-2" y="544" type="curve"/>
      <point x="83" y="468" type="line"/>
      <point x="83" y="479" type="line"/>
      <point x="3" y="550" type="line"/>
      <point x="2" y="552"/>
      <point x="-1" y="552"/>
    </contour>
    <contour>
      <point x="444" y="-36" type="curve" smooth="yes"/>
      <point x="441" y="-36"/>
      <point x="438" y="-39"/>
      <point x="438" y="-42" type="curve" smooth="yes"/>
      <point x="438" y="-46"/>
      <point x="441" y="-48"/>
      <point x="444" y="-48" type="curve" smooth="yes"/>
      <point x="448" y="-48"/>
      <point x="451" y="-46"/>
      <point x="451" y="-42" type="curve" smooth="yes"/>
      <point x="451" y="-39"/>
      <point x="448" y="-36"/>
    </contour>
    <contour>
      <point x="444" y="13" type="curve" smooth="yes"/>
      <point x="441" y="13"/>
      <point x="438" y="10"/>
      <point x="438" y="7" type="curve" smooth="yes"/>
      <point x="438" y="4"/>
      <point x="441" y="1"/>
      <point x="444" y="1" type="curve" smooth="yes"/>
      <point x="448" y="1"/>
      <point x="451" y="4"/>
      <point x="451" y="7" type="curve" smooth="yes"/>
      <point x="451" y="10"/>
      <point x="448" y="13"/>
    </contour>
    <contour>
      <point x="444" y="62" type="curve" smooth="yes"/>
      <point x="441" y="62"/>
      <point x="438" y="59"/>
      <point x="438" y="56" type="curve" smooth="yes"/>
      <point x="438" y="53"/>
      <point x="441" y="50"/>
      <point x="444" y="50" type="curve" smooth="yes"/>
      <point x="448" y="50"/>
      <point x="451" y="53"/>
      <point x="451" y="56" type="curve" smooth="yes"/>
      <point x="451" y="59"/>
      <point x="448" y="62"/>
    </contour>
    <contour>
      <point x="444" y="111" type="curve" smooth="yes"/>
      <point x="441" y="111"/>
      <point x="438" y="108"/>
      <point x="438" y="105" type="curve" smooth="yes"/>
      <point x="438" y="102"/>
      <point x="441" y="99"/>
      <point x="444" y="99" type="curve" smooth="yes"/>
      <point x="448" y="99"/>
      <point x="451" y="102"/>
      <point x="451" y="105" type="curve" smooth="yes"/>
      <point x="451" y="108"/>
      <point x="448" y="111"/>
    </contour>
    <contour>
      <point x="395" y="-36" type="curve" smooth="yes"/>
      <point x="392" y="-36"/>
      <point x="389" y="-39"/>
      <point x="389" y="-42" type="curve" smooth="yes"/>
      <point x="389" y="-46"/>
      <point x="392" y="-48"/>
      <point x="395" y="-48" type="curve" smooth="yes"/>
      <point x="398" y="-48"/>
      <point x="401" y="-46"/>
      <point x="401" y="-42" type="curve" smooth="yes"/>
      <point x="401" y="-39"/>
      <point x="398" y="-36"/>
    </contour>
    <contour>
      <point x="395" y="13" type="curve" smooth="yes"/>
      <point x="392" y="13"/>
      <point x="389" y="10"/>
      <point x="389" y="7" type="curve" smooth="yes"/>
      <point x="389" y="4"/>
      <point x="392" y="1"/>
      <point x="395" y="1" type="curve" smooth="yes"/>
      <point x="398" y="1"/>
      <point x="401" y="4"/>
      <point x="401" y="7" type="curve" smooth="yes"/>
      <point x="401" y="10"/>
      <point x="398" y="13"/>
    </contour>
    <contour>
      <point x="346" y="-36" type="curve" smooth="yes"/>
      <point x="342" y="-36"/>
      <point x="340" y="-39"/>
      <point x="340" y="-42" type="curve" smooth="yes"/>
      <point x="340" y="-46"/>
      <point x="342" y="-48"/>
      <point x="346" y="-48" type="curve" smooth="yes"/>
      <point x="349" y="-48"/>
      <point x="352" y="-46"/>
      <point x="352" y="-42" type="curve" smooth="yes"/>
      <point x="352" y="-39"/>
      <point x="349" y="-36"/>
    </contour>
    <contour>
      <point x="296" y="-36" type="curve" smooth="yes"/>
      <point x="293" y="-36"/>
      <point x="290" y="-39"/>
      <point x="290" y="-42" type="curve" smooth="yes"/>
      <point x="290" y="-46"/>
      <point x="293" y="-48"/>
      <point x="296" y="-48" type="curve" smooth="yes"/>
      <point x="300" y="-48"/>
      <point x="303" y="-46"/>
      <point x="303" y="-42" type="curve" smooth="yes"/>
      <point x="303" y="-39"/>
      <point x="300" y="-36"/>
    </contour>
    <contour>
      <point x="296" y="111" type="curve" smooth="yes"/>
      <point x="293" y="111"/>
      <point x="290" y="108"/>
      <point x="290" y="105" type="curve" smooth="yes"/>
      <point x="290" y="102"/>
      <point x="293" y="99"/>
      <point x="296" y="99" type="curve" smooth="yes"/>
      <point x="300" y="99"/>
      <point x="303" y="102"/>
      <point x="303" y="105" type="curve" smooth="yes"/>
      <point x="303" y="108"/>
      <point x="300" y="111"/>
    </contour>
    <contour>
      <point x="296" y="160" type="curve" smooth="yes"/>
      <point x="293" y="160"/>
      <point x="290" y="158"/>
      <point x="290" y="154" type="curve" smooth="yes"/>
      <point x="290" y="151"/>
      <point x="293" y="148"/>
      <point x="296" y="148" type="curve" smooth="yes"/>
      <point x="300" y="148"/>
      <point x="303" y="151"/>
      <point x="303" y="154" type="curve" smooth="yes"/>
      <point x="303" y="158"/>
      <point x="300" y="160"/>
    </contour>
    <contour>
      <point x="296" y="209" type="curve" smooth="yes"/>
      <point x="293" y="209"/>
      <point x="290" y="207"/>
      <point x="290" y="203" type="curve" smooth="yes"/>
      <point x="290" y="200"/>
      <point x="293" y="197"/>
      <point x="296" y="197" type="curve" smooth="yes"/>
      <point x="300" y="197"/>
      <point x="303" y="200"/>
      <point x="303" y="203" type="curve" smooth="yes"/>
      <point x="303" y="207"/>
      <point x="300" y="209"/>
    </contour>
    <contour>
      <point x="247" y="-36" type="curve" smooth="yes"/>
      <point x="244" y="-36"/>
      <point x="241" y="-39"/>
      <point x="241" y="-42" type="curve" smooth="yes"/>
      <point x="241" y="-46"/>
      <point x="244" y="-48"/>
      <point x="247" y="-48" type="curve" smooth="yes"/>
      <point x="250" y="-48"/>
      <point x="253" y="-46"/>
      <point x="253" y="-42" type="curve" smooth="yes"/>
      <point x="253" y="-39"/>
      <point x="250" y="-36"/>
    </contour>
    <contour>
      <point x="247" y="62" type="curve" smooth="yes"/>
      <point x="244" y="62"/>
      <point x="241" y="59"/>
      <point x="241" y="56" type="curve" smooth="yes"/>
      <point x="241" y="53"/>
      <point x="244" y="50"/>
      <point x="247" y="50" type="curve" smooth="yes"/>
      <point x="250" y="50"/>
      <point x="253" y="53"/>
      <point x="253" y="56" type="curve" smooth="yes"/>
      <point x="253" y="59"/>
      <point x="250" y="62"/>
    </contour>
    <contour>
      <point x="247" y="111" type="curve" smooth="yes"/>
      <point x="244" y="111"/>
      <point x="241" y="108"/>
      <point x="241" y="105" type="curve" smooth="yes"/>
      <point x="241" y="102"/>
      <point x="244" y="99"/>
      <point x="247" y="99" type="curve" smooth="yes"/>
      <point x="250" y="99"/>
      <point x="253" y="102"/>
      <point x="253" y="105" type="curve" smooth="yes"/>
      <point x="253" y="108"/>
      <point x="250" y="111"/>
    </contour>
    <contour>
      <point x="247" y="160" type="curve" smooth="yes"/>
      <point x="244" y="160"/>
      <point x="241" y="158"/>
      <point x="241" y="154" type="curve" smooth="yes"/>
      <point x="241" y="151"/>
      <point x="244" y="148"/>
      <point x="247" y="148" type="curve" smooth="yes"/>
      <point x="250" y="148"/>
      <point x="253" y="151"/>
      <point x="253" y="154" type="curve" smooth="yes"/>
      <point x="253" y="158"/>
      <point x="250" y="160"/>
    </contour>
    <contour>
      <point x="247" y="209" type="curve" smooth="yes"/>
      <point x="244" y="209"/>
      <point x="241" y="207"/>
      <point x="241" y="203" type="curve" smooth="yes"/>
      <point x="241" y="200"/>
      <point x="244" y="197"/>
      <point x="247" y="197" type="curve" smooth="yes"/>
      <point x="250" y="197"/>
      <point x="253" y="200"/>
      <point x="253" y="203" type="curve" smooth="yes"/>
      <point x="253" y="207"/>
      <point x="250" y="209"/>
    </contour>
    <contour>
      <point x="198" y="-36" type="curve" smooth="yes"/>
      <point x="194" y="-36"/>
      <point x="192" y="-39"/>
      <point x="192" y="-42" type="curve" smooth="yes"/>
      <point x="192" y="-46"/>
      <point x="194" y="-48"/>
      <point x="198" y="-48" type="curve" smooth="yes"/>
      <point x="201" y="-48"/>
      <point x="204" y="-46"/>
      <point x="204" y="-42" type="curve" smooth="yes"/>
      <point x="204" y="-39"/>
      <point x="201" y="-36"/>
    </contour>
    <contour>
      <point x="198" y="62" type="curve" smooth="yes"/>
      <point x="194" y="62"/>
      <point x="192" y="59"/>
      <point x="192" y="56" type="curve" smooth="yes"/>
      <point x="192" y="53"/>
      <point x="194" y="50"/>
      <point x="198" y="50" type="curve" smooth="yes"/>
      <point x="201" y="50"/>
      <point x="204" y="53"/>
      <point x="204" y="56" type="curve" smooth="yes"/>
      <point x="204" y="59"/>
      <point x="201" y="62"/>
    </contour>
    <contour>
      <point x="198" y="111" type="curve" smooth="yes"/>
      <point x="194" y="111"/>
      <point x="192" y="108"/>
      <point x="192" y="105" type="curve" smooth="yes"/>
      <point x="192" y="102"/>
      <point x="194" y="99"/>
      <point x="198" y="99" type="curve" smooth="yes"/>
      <point x="201" y="99"/>
      <point x="204" y="102"/>
      <point x="204" y="105" type="curve" smooth="yes"/>
      <point x="204" y="108"/>
      <point x="201" y="111"/>
    </contour>
    <contour>
      <point x="198" y="160" type="curve" smooth="yes"/>
      <point x="194" y="160"/>
      <point x="192" y="158"/>
      <point x="192" y="154" type="curve" smooth="yes"/>
      <point x="192" y="151"/>
      <point x="194" y="148"/>
      <point x="198" y="148" type="curve" smooth="yes"/>
      <point x="201" y="148"/>
      <point x="204" y="151"/>
      <point x="204" y="154" type="curve" smooth="yes"/>
      <point x="204" y="158"/>
      <point x="201" y="160"/>
    </contour>
    <contour>
      <point x="198" y="209" type="curve" smooth="yes"/>
      <point x="194" y="209"/>
      <point x="192" y="207"/>
      <point x="192" y="203" type="curve" smooth="yes"/>
      <point x="192" y="200"/>
      <point x="194" y="197"/>
      <point x="198" y="197" type="curve" smooth="yes"/>
      <point x="201" y="197"/>
      <point x="204" y="200"/>
      <point x="204" y="203" type="curve" smooth="yes"/>
      <point x="204" y="207"/>
      <point x="201" y="209"/>
    </contour>
    <contour>
      <point x="148" y="-36" type="curve" smooth="yes"/>
      <point x="145" y="-36"/>
      <point x="142" y="-39"/>
      <point x="142" y="-42" type="curve" smooth="yes"/>
      <point x="142" y="-46"/>
      <point x="145" y="-48"/>
      <point x="148" y="-48" type="curve" smooth="yes"/>
      <point x="152" y="-48"/>
      <point x="155" y="-46"/>
      <point x="155" y="-42" type="curve" smooth="yes"/>
      <point x="155" y="-39"/>
      <point x="152" y="-36"/>
    </contour>
    <contour>
      <point x="99" y="-36" type="curve" smooth="yes"/>
      <point x="96" y="-36"/>
      <point x="93" y="-39"/>
      <point x="93" y="-42" type="curve" smooth="yes"/>
      <point x="93" y="-46"/>
      <point x="96" y="-48"/>
      <point x="99" y="-48" type="curve" smooth="yes"/>
      <point x="102" y="-48"/>
      <point x="105" y="-46"/>
      <point x="105" y="-42" type="curve" smooth="yes"/>
      <point x="105" y="-39"/>
      <point x="102" y="-36"/>
    </contour>
    <contour>
      <point x="50" y="-36" type="curve" smooth="yes"/>
      <point x="46" y="-36"/>
      <point x="44" y="-39"/>
      <point x="44" y="-42" type="curve" smooth="yes"/>
      <point x="44" y="-46"/>
      <point x="46" y="-48"/>
      <point x="50" y="-48" type="curve" smooth="yes"/>
      <point x="53" y="-48"/>
      <point x="56" y="-46"/>
      <point x="56" y="-42" type="curve" smooth="yes"/>
      <point x="56" y="-39"/>
      <point x="53" y="-36"/>
    </contour>
    <contour>
      <point x="50" y="13" type="curve" smooth="yes"/>
      <point x="46" y="13"/>
      <point x="44" y="10"/>
      <point x="44" y="7" type="curve" smooth="yes"/>
      <point x="44" y="4"/>
      <point x="46" y="1"/>
      <point x="50" y="1" type="curve" smooth="yes"/>
      <point x="53" y="1"/>
      <point x="56" y="4"/>
      <point x="56" y="7" type="curve" smooth="yes"/>
      <point x="56" y="10"/>
      <point x="53" y="13"/>
    </contour>
    <contour>
      <point x="50" y="62" type="curve" smooth="yes"/>
      <point x="46" y="62"/>
      <point x="44" y="59"/>
      <point x="44" y="56" type="curve" smooth="yes"/>
      <point x="44" y="53"/>
      <point x="46" y="50"/>
      <point x="50" y="50" type="curve" smooth="yes"/>
      <point x="53" y="50"/>
      <point x="56" y="53"/>
      <point x="56" y="56" type="curve" smooth="yes"/>
      <point x="56" y="59"/>
      <point x="53" y="62"/>
    </contour>
    <contour>
      <point x="50" y="111" type="curve" smooth="yes"/>
      <point x="46" y="111"/>
      <point x="44" y="108"/>
      <point x="44" y="105" type="curve" smooth="yes"/>
      <point x="44" y="102"/>
      <point x="46" y="99"/>
      <point x="50" y="99" type="curve" smooth="yes"/>
      <point x="53" y="99"/>
      <point x="56" y="102"/>
      <point x="56" y="105" type="curve" smooth="yes"/>
      <point x="56" y="108"/>
      <point x="53" y="111"/>
    </contour>
    <contour>
      <point x="50" y="160" type="curve" smooth="yes"/>
      <point x="46" y="160"/>
      <point x="44" y="158"/>
      <point x="44" y="154" type="curve" smooth="yes"/>
      <point x="44" y="151"/>
      <point x="46" y="148"/>
      <point x="50" y="148" type="curve" smooth="yes"/>
      <point x="53" y="148"/>
      <point x="56" y="151"/>
      <point x="56" y="154" type="curve" smooth="yes"/>
      <point x="56" y="158"/>
      <point x="53" y="160"/>
    </contour>
    <contour>
      <point x="50" y="209" type="curve" smooth="yes"/>
      <point x="46" y="209"/>
      <point x="44" y="207"/>
      <point x="44" y="203" type="curve" smooth="yes"/>
      <point x="44" y="200"/>
      <point x="46" y="197"/>
      <point x="50" y="197" type="curve" smooth="yes"/>
      <point x="53" y="197"/>
      <point x="56" y="200"/>
      <point x="56" y="203" type="curve" smooth="yes"/>
      <point x="56" y="207"/>
      <point x="53" y="209"/>
    </contour>
    <contour>
      <point x="50" y="258" type="curve" smooth="yes"/>
      <point x="46" y="258"/>
      <point x="44" y="256"/>
      <point x="44" y="252" type="curve" smooth="yes"/>
      <point x="44" y="249"/>
      <point x="46" y="246"/>
      <point x="50" y="246" type="curve" smooth="yes"/>
      <point x="53" y="246"/>
      <point x="56" y="249"/>
      <point x="56" y="252" type="curve" smooth="yes"/>
      <point x="56" y="256"/>
      <point x="53" y="258"/>
    </contour>
    <contour>
      <point x="50" y="308" type="curve" smooth="yes"/>
      <point x="46" y="308"/>
      <point x="44" y="305"/>
      <point x="44" y="301" type="curve" smooth="yes"/>
      <point x="44" y="298"/>
      <point x="46" y="295"/>
      <point x="50" y="295" type="curve" smooth="yes"/>
      <point x="53" y="295"/>
      <point x="56" y="298"/>
      <point x="56" y="301" type="curve" smooth="yes"/>
      <point x="56" y="305"/>
      <point x="53" y="308"/>
    </contour>
    <contour>
      <point x="50" y="357" type="curve" smooth="yes"/>
      <point x="46" y="357"/>
      <point x="44" y="354"/>
      <point x="44" y="351" type="curve" smooth="yes"/>
      <point x="44" y="347"/>
      <point x="46" y="344"/>
      <point x="50" y="344" type="curve" smooth="yes"/>
      <point x="53" y="344"/>
      <point x="56" y="347"/>
      <point x="56" y="351" type="curve" smooth="yes"/>
      <point x="56" y="354"/>
      <point x="53" y="357"/>
    </contour>
    <contour>
      <point x="50" y="406" type="curve" smooth="yes"/>
      <point x="46" y="406"/>
      <point x="44" y="403"/>
      <point x="44" y="400" type="curve" smooth="yes"/>
      <point x="44" y="396"/>
      <point x="46" y="393"/>
      <point x="50" y="393" type="curve" smooth="yes"/>
      <point x="53" y="393"/>
      <point x="56" y="396"/>
      <point x="56" y="400" type="curve" smooth="yes"/>
      <point x="56" y="403"/>
      <point x="53" y="406"/>
    </contour>
    <contour>
      <point x="50" y="455" type="curve" smooth="yes"/>
      <point x="46" y="455"/>
      <point x="44" y="452"/>
      <point x="44" y="449" type="curve" smooth="yes"/>
      <point x="44" y="445"/>
      <point x="46" y="443"/>
      <point x="50" y="443" type="curve" smooth="yes"/>
      <point x="53" y="443"/>
      <point x="56" y="445"/>
      <point x="56" y="449" type="curve" smooth="yes"/>
      <point x="56" y="452"/>
      <point x="53" y="455"/>
    </contour>
  </outline>
</glyph>
<glyph name="c.1" format="1">
  <advance width="467"/>
  <outline>
    <contour>
      <point x="268" y="15" type="curve" smooth="yes"/>
      <point x="147" y="15"/>
      <point x="80" y="99"/>
      <point x="80" y="251" type="curve" smooth="yes"/>
      <point x="80" y="405"/>
      <point x="149" y="489"/>
      <point x="278" y="489" type="curve" smooth="yes"/>
      <point x="326" y="489"/>
      <point x="373" y="473"/>
      <point x="410" y="445" type="curve"/>
      <point x="416" y="445" type="line"/>
      <point x="422" y="463" type="line"/>
      <point x="382" y="492"/>
      <point x="329" y="509"/>
      <point x="278" y="509" type="curve" smooth="yes"/>
      <point x="137" y="509"/>
      <point x="59" y="416"/>
      <point x="59" y="251" type="curve" smooth="yes"/>
      <point x="59" y="88"/>
      <point x="133" y="-4"/>
      <point x="269" y="-4" type="curve" smooth="yes"/>
      <point x="320" y="-4"/>
      <point x="375" y="14"/>
      <point x="421" y="47" type="curve"/>
      <point x="423" y="66" type="line"/>
      <point x="417" y="68" type="line"/>
      <point x="374" y="35"/>
      <point x="320" y="15"/>
    </contour>
    <contour>
      <point x="471" y="156" type="curve" smooth="yes"/>
      <point x="471" y="158"/>
      <point x="468" y="159"/>
      <point x="466" y="158" type="curve"/>
      <point x="208" y="50" type="line"/>
      <point x="212" y="48"/>
      <point x="216" y="47"/>
      <point x="221" y="46" type="curve"/>
      <point x="469" y="150" type="line"/>
      <point x="471" y="151"/>
      <point x="472" y="154"/>
    </contour>
    <contour>
      <point x="-1" y="-38" type="line"/>
      <point x="-3" y="-39"/>
      <point x="-4" y="-42"/>
      <point x="-3" y="-44" type="curve" smooth="yes"/>
      <point x="-3" y="-45"/>
      <point x="-1" y="-46"/>
      <point x="1" y="-46" type="curve" smooth="yes"/>
      <point x="1" y="-46"/>
      <point x="2" y="-46"/>
      <point x="2" y="-46" type="curve"/>
      <point x="133" y="9" type="line"/>
      <point x="131" y="11"/>
      <point x="128" y="13"/>
      <point x="126" y="15" type="curve"/>
    </contour>
    <contour>
      <point x="468" y="-36" type="curve" smooth="yes"/>
      <point x="464" y="-36"/>
      <point x="461" y="-39"/>
      <point x="461" y="-42" type="curve" smooth="yes"/>
      <point x="461" y="-46"/>
      <point x="464" y="-48"/>
      <point x="468" y="-48" type="curve" smooth="yes"/>
      <point x="471" y="-48"/>
      <point x="474" y="-46"/>
      <point x="474" y="-42" type="curve" smooth="yes"/>
      <point x="474" y="-39"/>
      <point x="471" y="-36"/>
    </contour>
    <contour>
      <point x="468" y="13" type="curve" smooth="yes"/>
      <point x="464" y="13"/>
      <point x="461" y="10"/>
      <point x="461" y="7" type="curve" smooth="yes"/>
      <point x="461" y="4"/>
      <point x="464" y="1"/>
      <point x="468" y="1" type="curve" smooth="yes"/>
      <point x="471" y="1"/>
      <point x="474" y="4"/>
      <point x="474" y="7" type="curve" smooth="yes"/>
      <point x="474" y="10"/>
      <point x="471" y="13"/>
    </contour>
    <contour>
      <point x="468" y="62" type="curve" smooth="yes"/>
      <point x="464" y="62"/>
      <point x="461" y="59"/>
      <point x="461" y="56" type="curve" smooth="yes"/>
      <point x="461" y="53"/>
      <point x="464" y="50"/>
      <point x="468" y="50" type="curve" smooth="yes"/>
      <point x="471" y="50"/>
      <point x="474" y="53"/>
      <point x="474" y="56" type="curve" smooth="yes"/>
      <point x="474" y="59"/>
      <point x="471" y="62"/>
    </contour>
    <contour>
      <point x="468" y="111" type="curve" smooth="yes"/>
      <point x="464" y="111"/>
      <point x="461" y="108"/>
      <point x="461" y="105" type="curve" smooth="yes"/>
      <point x="461" y="102"/>
      <point x="464" y="99"/>
      <point x="468" y="99" type="curve" smooth="yes"/>
      <point x="471" y="99"/>
      <point x="474" y="102"/>
      <point x="474" y="105" type="curve" smooth="yes"/>
      <point x="474" y="108"/>
      <point x="471" y="111"/>
    </contour>
    <contour>
      <point x="421" y="-36" type="curve" smooth="yes"/>
      <point x="418" y="-36"/>
      <point x="415" y="-39"/>
      <point x="415" y="-42" type="curve" smooth="yes"/>
      <point x="415" y="-46"/>
      <point x="418" y="-48"/>
      <point x="421" y="-48" type="curve" smooth="yes"/>
      <point x="424" y="-48"/>
      <point x="427" y="-46"/>
      <point x="427" y="-42" type="curve" smooth="yes"/>
      <point x="427" y="-39"/>
      <point x="424" y="-36"/>
    </contour>
    <contour>
      <point x="421" y="13" type="curve" smooth="yes"/>
      <point x="418" y="13"/>
      <point x="415" y="10"/>
      <point x="415" y="7" type="curve" smooth="yes"/>
      <point x="415" y="4"/>
      <point x="418" y="1"/>
      <point x="421" y="1" type="curve" smooth="yes"/>
      <point x="424" y="1"/>
      <point x="427" y="4"/>
      <point x="427" y="7" type="curve" smooth="yes"/>
      <point x="427" y="10"/>
      <point x="424" y="13"/>
    </contour>
    <contour>
      <point x="421" y="111" type="curve" smooth="yes"/>
      <point x="418" y="111"/>
      <point x="415" y="108"/>
      <point x="415" y="105" type="curve" smooth="yes"/>
      <point x="415" y="102"/>
      <point x="418" y="99"/>
      <point x="421" y="99" type="curve" smooth="yes"/>
      <point x="424" y="99"/>
      <point x="427" y="102"/>
      <point x="427" y="105" type="curve" smooth="yes"/>
      <point x="427" y="108"/>
      <point x="424" y="111"/>
    </contour>
    <contour>
      <point x="374" y="-36" type="curve" smooth="yes"/>
      <point x="371" y="-36"/>
      <point x="368" y="-39"/>
      <point x="368" y="-42" type="curve" smooth="yes"/>
      <point x="368" y="-46"/>
      <point x="371" y="-48"/>
      <point x="374" y="-48" type="curve" smooth="yes"/>
      <point x="378" y="-48"/>
      <point x="380" y="-46"/>
      <point x="380" y="-42" type="curve" smooth="yes"/>
      <point x="380" y="-39"/>
      <point x="378" y="-36"/>
    </contour>
    <contour>
      <point x="327" y="-36" type="curve" smooth="yes"/>
      <point x="324" y="-36"/>
      <point x="321" y="-39"/>
      <point x="321" y="-42" type="curve" smooth="yes"/>
      <point x="321" y="-46"/>
      <point x="324" y="-48"/>
      <point x="327" y="-48" type="curve" smooth="yes"/>
      <point x="331" y="-48"/>
      <point x="334" y="-46"/>
      <point x="334" y="-42" type="curve" smooth="yes"/>
      <point x="334" y="-39"/>
      <point x="331" y="-36"/>
    </contour>
    <contour>
      <point x="327" y="62" type="curve" smooth="yes"/>
      <point x="324" y="62"/>
      <point x="321" y="59"/>
      <point x="321" y="56" type="curve" smooth="yes"/>
      <point x="321" y="53"/>
      <point x="324" y="50"/>
      <point x="327" y="50" type="curve" smooth="yes"/>
      <point x="331" y="50"/>
      <point x="334" y="53"/>
      <point x="334" y="56" type="curve" smooth="yes"/>
      <point x="334" y="59"/>
      <point x="331" y="62"/>
    </contour>
    <contour>
      <point x="281" y="-36" type="curve" smooth="yes"/>
      <point x="277" y="-36"/>
      <point x="275" y="-39"/>
      <point x="275" y="-42" type="curve" smooth="yes"/>
      <point x="275" y="-46"/>
      <point x="277" y="-48"/>
      <point x="281" y="-48" type="curve" smooth="yes"/>
      <point x="284" y="-48"/>
      <point x="287" y="-46"/>
      <point x="287" y="-42" type="curve" smooth="yes"/>
      <point x="287" y="-39"/>
      <point x="284" y="-36"/>
    </contour>
    <contour>
      <point x="234" y="-36" type="curve" smooth="yes"/>
      <point x="231" y="-36"/>
      <point x="228" y="-39"/>
      <point x="228" y="-42" type="curve" smooth="yes"/>
      <point x="228" y="-46"/>
      <point x="231" y="-48"/>
      <point x="234" y="-48" type="curve" smooth="yes"/>
      <point x="237" y="-48"/>
      <point x="240" y="-46"/>
      <point x="240" y="-42" type="curve" smooth="yes"/>
      <point x="240" y="-39"/>
      <point x="237" y="-36"/>
    </contour>
    <contour>
      <point x="187" y="-36" type="curve" smooth="yes"/>
      <point x="184" y="-36"/>
      <point x="181" y="-39"/>
      <point x="181" y="-42" type="curve" smooth="yes"/>
      <point x="181" y="-46"/>
      <point x="184" y="-48"/>
      <point x="187" y="-48" type="curve" smooth="yes"/>
      <point x="191" y="-48"/>
      <point x="193" y="-46"/>
      <point x="193" y="-42" type="curve" smooth="yes"/>
      <point x="193" y="-39"/>
      <point x="191" y="-36"/>
    </contour>
    <contour>
      <point x="141" y="-36" type="curve" smooth="yes"/>
      <point x="137" y="-36"/>
      <point x="134" y="-39"/>
      <point x="134" y="-42" type="curve" smooth="yes"/>
      <point x="134" y="-46"/>
      <point x="137" y="-48"/>
      <point x="141" y="-48" type="curve" smooth="yes"/>
      <point x="144" y="-48"/>
      <point x="147" y="-46"/>
      <point x="147" y="-42" type="curve" smooth="yes"/>
      <point x="147" y="-39"/>
      <point x="144" y="-36"/>
    </contour>
    <contour>
      <point x="94" y="-36" type="curve" smooth="yes"/>
      <point x="90" y="-36"/>
      <point x="88" y="-39"/>
      <point x="88" y="-42" type="curve" smooth="yes"/>
      <point x="88" y="-46"/>
      <point x="90" y="-48"/>
      <point x="94" y="-48" type="curve" smooth="yes"/>
      <point x="97" y="-48"/>
      <point x="100" y="-46"/>
      <point x="100" y="-42" type="curve" smooth="yes"/>
      <point x="100" y="-39"/>
      <point x="97" y="-36"/>
    </contour>
  </outline>
</glyph>
